<svg width="44" height="14" viewBox="0 0 44 14" fill="none" xmlns="http://www.w3.org/2000/svg">
<g clip-path="url(#clip0_10269_43634)">
<path d="M40.9787 0V3.05738H38.3691V2.54442C38.3691 1.13917 39.5375 0 40.9787 0Z" fill="#F47920"/>
<path d="M38.3691 5.81348H40.9787V6.32644C40.9787 7.73169 39.8103 8.87086 38.3691 8.87086V5.81348Z" fill="#F47920"/>
<path d="M43.9988 3.05762H40.9785V5.81404H43.9988V3.05762Z" fill="#F47920"/>
<path d="M38.3699 3.05762H35.3496V5.81404H38.3699V3.05762Z" fill="#F47920"/>
<path d="M8.4784 7.16271V5.11401H0V3.90234H9.8545V7.16311H8.4784V7.16271ZM0 13.7991V12.5874H5.43002V13.7991H0ZM1.90861 13.1211V4.59439H3.41773V13.1207H1.90861V13.1211ZM2.57455 9.54294V8.43238H6.43637V9.54294H2.57455ZM5.7853 10.8847V7.09022H6.96928V10.8847H5.7853Z" fill="#D71920"/>
<path d="M10.4316 5.04132V3.90137H13.3615V5.04132H10.4316ZM10.4316 13.7985V12.6585H15.0482V13.7985H10.4316ZM11.985 13.4811V3.90137H13.4499V13.4811H11.985Z" fill="#D71920"/>
<path d="M18.8196 14.0005C18.3064 14.0005 17.8209 13.9163 17.3623 13.7478C16.9038 13.5797 16.4942 13.3395 16.1341 13.0263C15.774 12.714 15.4903 12.339 15.2833 11.9013C15.0763 11.464 14.9727 10.971 14.9727 10.4224C14.9727 9.87374 15.0763 9.3792 15.2833 8.93639C15.4903 8.49396 15.774 8.11659 16.1341 7.80388C16.4942 7.49117 16.9038 7.25056 17.3623 7.08244C17.8209 6.91433 18.3068 6.83008 18.8196 6.83008C19.3324 6.83008 19.791 6.91433 20.2548 7.08244C20.7182 7.25056 21.1301 7.49117 21.4902 7.80388C21.8503 8.11659 22.134 8.49396 22.341 8.93639C22.548 9.3792 22.6517 9.87414 22.6517 10.4224C22.6517 10.9706 22.5504 11.464 22.3483 11.9013C22.1461 12.3394 21.8672 12.7144 21.5123 13.0263C21.157 13.3391 20.7479 13.5797 20.2841 13.7478C19.8203 13.9159 19.3324 14.0005 18.8192 14.0005H18.8196ZM18.8196 12.8751C19.2637 12.8751 19.658 12.7744 20.0032 12.5722C20.3484 12.3704 20.6245 12.0866 20.8319 11.721C21.0389 11.3558 21.1426 10.9228 21.1426 10.4228C21.1426 9.92273 21.0389 9.4901 20.8319 9.12449C20.6245 8.75926 20.3484 8.47555 20.0032 8.27334C19.658 8.07153 19.2633 7.97042 18.8196 7.97042C18.3759 7.97042 17.9764 8.07153 17.6212 8.27334C17.2659 8.47555 16.987 8.75926 16.7852 9.12449C16.5831 9.4901 16.4818 9.92312 16.4818 10.4228C16.4818 10.9224 16.5831 11.3558 16.7852 11.721C16.9874 12.0866 17.2663 12.3704 17.6212 12.5722C17.9764 12.7744 18.3755 12.8751 18.8196 12.8751Z" fill="#D71920"/>
<path d="M22.8008 8.14343V7.00348H25.7451V8.14343H22.8008ZM22.8008 13.7989V12.659H27.417V13.7989H22.8008ZM24.369 13.4815V7.00348H25.8339V13.4815H24.369ZM25.3605 10.3939V9.26889C25.7254 8.79786 26.1148 8.37699 26.5292 8.00667C26.9435 7.63635 27.3724 7.34793 27.8164 7.14103C28.2605 6.93412 28.7042 6.83105 29.1479 6.83105H29.7693V9.7309H28.4969V8.23043C28.191 8.23043 27.8655 8.31703 27.5202 8.49024C27.175 8.66305 26.8197 8.91072 26.4548 9.23323C26.0899 9.55574 25.725 9.94251 25.3601 10.3943L25.3605 10.3939Z" fill="#D71920"/>
<path d="M32.5817 14.0005C32.1477 14.0005 31.7434 13.9186 31.3684 13.7552C30.9934 13.5918 30.6952 13.3489 30.4734 13.0263C30.2515 12.7046 30.1406 12.3077 30.1406 11.8362C30.1406 11.3648 30.2813 10.949 30.5622 10.6171C30.8431 10.2852 31.2056 10.0356 31.6497 9.86669C32.0938 9.69858 32.5673 9.61432 33.07 9.61432C33.652 9.61432 34.1596 9.67938 34.594 9.80909C35.0281 9.93879 35.4766 10.1002 35.9404 10.2923V11.2159C35.4175 10.9945 34.9417 10.8479 34.5125 10.7758C34.0832 10.7037 33.6862 10.6677 33.3212 10.6677C33.0154 10.6579 32.7316 10.6963 32.4704 10.7829C32.2088 10.8695 31.9942 10.9945 31.8266 11.1583C31.659 11.3217 31.575 11.5333 31.575 11.7931C31.575 12.0145 31.6393 12.2019 31.7675 12.3555C31.8953 12.5095 32.0657 12.6223 32.2779 12.6948C32.4897 12.7669 32.7144 12.803 32.9511 12.803C33.2075 12.803 33.4985 12.7524 33.824 12.6513C34.1495 12.5506 34.4924 12.3939 34.8525 12.1827C35.2126 11.971 35.5751 11.7065 35.94 11.3891L35.9102 12.3704C35.5747 12.6976 35.2222 12.9832 34.8521 13.2286C34.4823 13.4739 34.1073 13.6639 33.7275 13.7983C33.3478 13.9331 32.9656 14.0005 32.5809 14.0005H32.5817ZM36.9612 13.9139C36.6751 13.9139 36.4186 13.8442 36.192 13.7047C35.9649 13.5652 35.7853 13.3606 35.6518 13.0918C35.5184 12.8226 35.4521 12.5001 35.4521 12.125V9.45562C35.4521 9.10959 35.3681 8.83332 35.2005 8.62603C35.0325 8.41912 34.8131 8.26785 34.5418 8.17145C34.2705 8.07545 33.9671 8.02725 33.6319 8.02725C33.1878 8.02725 32.7341 8.08485 32.2707 8.20045C31.8069 8.31605 31.3387 8.47006 30.8648 8.66208L30.5542 7.55151C31.0871 7.33011 31.6292 7.15455 32.1819 7.02484C32.7341 6.89513 33.277 6.83008 33.8095 6.83008C34.4405 6.83008 34.9835 6.93079 35.4372 7.13299C35.891 7.33481 36.2386 7.63302 36.4801 8.02725C36.7217 8.42186 36.8426 8.91719 36.8426 9.51322V12.0094C36.8426 12.2595 36.8873 12.4401 36.9757 12.5506C37.0645 12.6611 37.1879 12.7164 37.3454 12.7164C37.4342 12.7164 37.5178 12.7023 37.597 12.6733C37.6758 12.6443 37.7449 12.6204 37.8044 12.6008L38.115 13.6251C38.0061 13.6925 37.851 13.7576 37.6488 13.8199C37.4467 13.8822 37.2172 13.9135 36.9608 13.9135L36.9612 13.9139Z" fill="#D71920"/>
</g>
<defs>
<clipPath id="clip0_10269_43634">
<rect width="44" height="14" fill="white"/>
</clipPath>
</defs>
</svg>
