<svg width="39" height="38" viewBox="0 0 39 38" fill="none" xmlns="http://www.w3.org/2000/svg">
<rect x="0.5" width="38" height="38" rx="19" fill="#FFF3E0"/>
<path d="M14.5827 15.6673C14.5827 14.5167 15.5154 13.584 16.666 13.584C17.8166 13.584 18.7493 14.5167 18.7493 15.6673C18.7493 16.8179 17.8166 17.7507 16.666 17.7507C15.5154 17.7507 14.5827 16.8179 14.5827 15.6673ZM16.666 12.334C14.8251 12.334 13.3327 13.8264 13.3327 15.6673C13.3327 17.5082 14.8251 19.0007 16.666 19.0007C18.5069 19.0007 19.9993 17.5082 19.9993 15.6673C19.9993 13.8264 18.5069 12.334 16.666 12.334ZM22.916 16.5007C22.916 15.8103 23.4757 15.2507 24.166 15.2507C24.8563 15.2507 25.416 15.8103 25.416 16.5007C25.416 17.191 24.8563 17.7507 24.166 17.7507C23.4757 17.7507 22.916 17.191 22.916 16.5007ZM24.166 14.0007C22.7853 14.0007 21.666 15.1199 21.666 16.5007C21.666 17.8814 22.7853 19.0007 24.166 19.0007C25.5468 19.0007 26.666 17.8814 26.666 16.5007C26.666 15.1199 25.5468 14.0007 24.166 14.0007ZM21.873 24.8654C22.4583 25.1033 23.2091 25.2507 24.1668 25.2507C26.0688 25.2507 27.1549 24.6696 27.7476 23.9524C28.0352 23.6043 28.1815 23.2529 28.2558 22.9836C28.2928 22.8491 28.3122 22.734 28.3223 22.6482C28.3273 22.6052 28.3302 22.5691 28.3317 22.5412C28.3324 22.5273 28.3329 22.5154 28.3332 22.5056L28.3334 22.4926L28.3335 22.4872V22.4849V22.4828C28.3335 21.4802 27.5207 20.6673 26.518 20.6673H21.8157C21.7928 20.6673 21.77 20.6677 21.7474 20.6686C22.0757 21.0112 22.3149 21.4398 22.4277 21.9173H26.518C26.8277 21.9173 27.0792 22.1662 27.0834 22.4747C27.0832 22.4795 27.0824 22.4886 27.0809 22.5016C27.0772 22.5329 27.0689 22.5852 27.0506 22.6517C27.0141 22.7842 26.9391 22.9684 26.784 23.1561C26.4913 23.5103 25.8066 24.0007 24.1668 24.0007C23.3501 24.0007 22.7703 23.879 22.3578 23.7132C22.2686 24.0466 22.1203 24.4488 21.873 24.8654ZM13.541 20.6673C12.5055 20.6673 11.666 21.5068 11.666 22.5423V22.7516V22.7525L11.666 22.7547L11.6661 22.7599L11.6663 22.7737C11.6665 22.7845 11.667 22.7982 11.6678 22.8149C11.6693 22.8481 11.6722 22.8927 11.6777 22.9472C11.6885 23.0557 11.7096 23.2048 11.7507 23.381C11.8326 23.732 11.9965 24.201 12.3259 24.6716C13.0082 25.6464 14.3092 26.5007 16.666 26.5007C19.0228 26.5007 20.3238 25.6464 21.0062 24.6716C21.3356 24.201 21.4994 23.732 21.5813 23.381C21.6224 23.2048 21.6435 23.0557 21.6543 22.9472C21.6598 22.8927 21.6627 22.8481 21.6643 22.8149C21.665 22.7982 21.6655 22.7845 21.6657 22.7737L21.6659 22.7599L21.666 22.7547V22.7525V22.5423C21.666 21.5068 20.8265 20.6673 19.791 20.6673H13.541ZM12.9164 22.7567L12.916 22.7462V22.5423C12.916 22.1972 13.1958 21.9173 13.541 21.9173H19.791C20.1362 21.9173 20.416 22.1972 20.416 22.5423V22.7462L20.4156 22.7567C20.415 22.7692 20.4137 22.7917 20.4106 22.8227C20.4043 22.885 20.3913 22.9801 20.364 23.0969C20.3092 23.3318 20.1996 23.6441 19.9821 23.9547C19.5708 24.5424 18.6842 25.2507 16.666 25.2507C14.6479 25.2507 13.7613 24.5424 13.3499 23.9547C13.1324 23.6441 13.0228 23.3318 12.968 23.0969C12.9408 22.9801 12.9277 22.885 12.9215 22.8227C12.9184 22.7917 12.917 22.7692 12.9164 22.7567Z" fill="#EF6C00"/>
</svg>
