<svg width="21" height="20" viewBox="0 0 21 20" fill="none" xmlns="http://www.w3.org/2000/svg">
<path d="M21 6C21 9.03757 18.5376 11.5 15.5 11.5C12.4624 11.5 10 9.03757 10 6C10 2.96243 12.4624 0.5 15.5 0.5C18.5376 0.5 21 2.96243 21 6ZM15.5 2.5C15.2239 2.5 15 2.72386 15 3V7C15 7.27614 15.2239 7.5 15.5 7.5C15.7761 7.5 16 7.27614 16 7V3C16 2.72386 15.7761 2.5 15.5 2.5ZM15.5 9.625C15.8452 9.625 16.125 9.34518 16.125 9C16.125 8.65482 15.8452 8.375 15.5 8.375C15.1548 8.375 14.875 8.65482 14.875 9C14.875 9.34518 15.1548 9.625 15.5 9.625ZM18.5 16.25V11.7678C19.051 11.4806 19.5557 11.1168 20 10.6904V16.25C20 17.983 18.6435 19.3992 16.9344 19.4949L16.75 19.5H3.25C1.51697 19.5 0.10075 18.1435 0.00514007 16.4344L0 16.25V6.75C0 5.01697 1.35645 3.60075 3.06558 3.50514L3.25 3.5H9.4982C9.3004 3.97417 9.1572 4.47679 9.0764 5H3.25C2.33183 5 1.57881 5.70711 1.5058 6.60647L1.5 6.75V7.179L10 11.6525L11.3052 10.9654C11.7437 11.3363 12.232 11.6501 12.7587 11.8954L10.3493 13.1637C10.1619 13.2623 9.9431 13.2764 9.7468 13.206L9.6507 13.1637L1.5 8.874V16.25C1.5 17.1682 2.20711 17.9212 3.10647 17.9942L3.25 18H16.75C17.6682 18 18.4212 17.2929 18.4942 16.3935L18.5 16.25Z" fill="#212121"/>
</svg>
