<svg width="38" height="38" viewBox="0 0 38 38" fill="none" xmlns="http://www.w3.org/2000/svg">
<rect width="38" height="38" rx="19" fill="#E1F5FE"/>
<path d="M23.1926 18.1913C23.4367 17.9472 23.4367 17.5515 23.1926 17.3074C22.9485 17.0633 22.5528 17.0633 22.3087 17.3074L18.1673 21.4488L16.5259 19.8074C16.2819 19.5633 15.8861 19.5633 15.642 19.8074C15.398 20.0515 15.398 20.4472 15.642 20.6913L17.7254 22.7746C17.9695 23.0187 18.3652 23.0187 18.6092 22.7746L23.1926 18.1913ZM22.329 12.4031C22.2584 11.432 21.4482 10.666 20.459 10.666H17.5423C16.5774 10.666 15.7827 11.3949 15.6788 12.3322L14.209 12.3327C13.1735 12.3327 12.334 13.1721 12.334 14.2077V25.4577C12.334 26.4932 13.1735 27.3327 14.209 27.3327H23.7923C24.8278 27.3327 25.6673 26.4932 25.6673 25.4577V14.2077C25.6673 13.1721 24.8278 12.3327 23.7923 12.3327L22.3225 12.3322C22.3251 12.3557 22.3272 12.3793 22.329 12.4031ZM22.3297 12.4126L22.334 12.541C22.334 12.4979 22.3326 12.4551 22.3297 12.4126ZM17.5423 14.416H20.459C21.109 14.416 21.6818 14.0852 22.0182 13.5828L23.7923 13.5827C24.1375 13.5827 24.4173 13.8625 24.4173 14.2077V25.4577C24.4173 25.8028 24.1375 26.0827 23.7923 26.0827H14.209C13.8638 26.0827 13.584 25.8028 13.584 25.4577V14.2077C13.584 13.8625 13.8638 13.5827 14.209 13.5827L15.9832 13.5828C16.3195 14.0853 16.8923 14.416 17.5423 14.416ZM17.5423 11.916H20.459C20.8042 11.916 21.084 12.1958 21.084 12.541C21.084 12.8862 20.8042 13.166 20.459 13.166H17.5423C17.1971 13.166 16.9173 12.8862 16.9173 12.541C16.9173 12.1958 17.1971 11.916 17.5423 11.916Z" fill="#0277BD"/>
</svg>
