<svg width="450" height="62" viewBox="0 0 450 62" fill="none" xmlns="http://www.w3.org/2000/svg">
<rect width="450" height="62" rx="8" fill="#FAFAFA"/>
<g clip-path="url(#clip0_10882_6117)">
<rect x="-23" y="-23" width="108" height="108" rx="8" fill="white"/>
<path d="M36.1454 25C33.7313 25 31.5739 26.2494 31.5739 28.5579C31.5739 31.2052 35.4001 31.3881 35.4001 32.718C35.4001 33.278 34.7574 33.7793 33.6597 33.7793C32.1019 33.7793 30.9376 33.0789 30.9376 33.0789L30.4394 35.4083C30.4394 35.4083 31.7807 36 33.5614 36C36.2008 36 38.2777 34.6892 38.2777 32.3413C38.2777 29.5439 34.4356 29.3665 34.4356 28.1321C34.4356 27.6934 34.9632 27.2127 36.0578 27.2127C37.2927 27.2127 38.3003 27.7221 38.3003 27.7221L38.7879 25.4723C38.7879 25.4723 37.6916 25 36.1454 25ZM14.0585 25.1698L14 25.5094C14 25.5094 15.0156 25.695 15.9304 26.0652C17.1082 26.4898 17.1921 26.7369 17.3904 27.5046L19.552 35.8249H22.4495L26.9134 25.1698H24.0225L21.1542 32.4143L19.9837 26.2735C19.8764 25.5707 19.3327 25.1698 18.6672 25.1698H14.0585ZM28.0759 25.1698L25.8081 35.8249H28.5648L30.8246 25.1698H28.0759ZM43.4511 25.1698C42.7863 25.1698 42.4341 25.5252 42.1757 26.1462L38.1369 35.8249H41.0278L41.5871 34.2118H45.1091L45.4492 35.8249H48L45.7747 25.1698H43.4511ZM43.8271 28.0485L44.684 32.0468H42.3882L43.8271 28.0485Z" fill="#1434CB"/>
</g>
<g clip-path="url(#clip1_10882_6117)">
<rect x="14" y="-23" width="108" height="108" rx="8" fill="white"/>
<g clip-path="url(#clip2_10882_6117)">
<path d="M78 40V36.9893H75.7078L74.5276 35.6843L73.3416 36.9893H65.7841V30.9074H63.3449L66.3705 24.0601H69.2885L70.3301 26.4059V24.0601H73.942L74.569 25.8279L75.2002 24.0601H78V21H59V40H78ZM76.0939 36.2277H78L75.4787 33.5541L78 30.9108H76.1243L74.5671 32.6124L73.025 30.9108H71.1186L73.6251 33.5693L71.1186 36.2277H72.9722L74.5371 34.5109L76.0943 36.2277H76.0939ZM76.5397 33.5563L77.9996 35.1098V32.0158L76.5397 33.5563ZM68.0417 34.9973V34.1693H71.0422V32.9692H68.0417V32.1412H71.1182V30.9108H66.5909V36.2281H71.1182V34.9977H68.0417V34.9973ZM76.564 30.139H77.9996V24.8217H75.7664L74.5735 28.1334L73.3887 24.8217H71.1174V30.139H72.5531V26.4169L73.9203 30.139H75.1964L76.5636 26.4093V30.139H76.564ZM69.4846 30.139H71.1178L68.7706 24.8217H66.9017L64.5545 30.139H66.1497L66.5905 29.0754H69.0366L69.4846 30.139ZM68.535 27.8829H67.0917L67.8133 26.1433L68.535 27.8829Z" fill="#006FCF"/>
</g>
</g>
<g clip-path="url(#clip3_10882_6117)">
<rect x="51" y="-23" width="108" height="108" rx="8" fill="white"/>
<path d="M116 35.573C116 37.4619 114.467 39 112.584 39H94V25.427C94 23.5381 95.533 22 97.4156 22H116V35.573Z" fill="white"/>
<path d="M109.949 32.0921H111.361C111.401 32.0921 111.495 32.0786 111.535 32.0786C111.804 32.0246 112.033 31.7817 112.033 31.4444C112.033 31.1206 111.804 30.8778 111.535 30.8103C111.495 30.7968 111.414 30.7968 111.361 30.7968H109.949V32.0921Z" fill="url(#paint0_linear_10882_6117)"/>
<path d="M111.199 23.1468C109.855 23.1468 108.752 24.2397 108.752 25.6024V28.1524H112.208C112.289 28.1524 112.383 28.1524 112.45 28.1659C113.23 28.2064 113.808 28.6111 113.808 29.3127C113.808 29.8659 113.418 30.3381 112.692 30.4325V30.4595C113.485 30.5135 114.09 30.9587 114.09 31.6468C114.09 32.3889 113.418 32.8746 112.531 32.8746H108.738V37.8667H112.329C113.674 37.8667 114.776 36.7738 114.776 35.4111V23.1468H111.199Z" fill="url(#paint1_linear_10882_6117)"/>
<path d="M111.858 29.4746C111.858 29.1508 111.63 28.9349 111.361 28.8944C111.334 28.8944 111.267 28.881 111.226 28.881H109.949V30.0683H111.226C111.267 30.0683 111.347 30.0683 111.361 30.0548C111.63 30.0143 111.858 29.7984 111.858 29.4746Z" fill="url(#paint2_linear_10882_6117)"/>
<path d="M97.6711 23.1468C96.3264 23.1468 95.2237 24.2397 95.2237 25.6024V31.6603C95.9095 31.9976 96.6222 32.2135 97.335 32.2135C98.1822 32.2135 98.6394 31.7008 98.6394 30.9992V28.1389H100.737V30.9857C100.737 32.0921 100.051 32.996 97.7249 32.996C96.313 32.996 95.2103 32.6857 95.2103 32.6857V37.8532H98.8007C100.145 37.8532 101.248 36.7603 101.248 35.3976V23.1468H97.6711Z" fill="url(#paint3_linear_10882_6117)"/>
<path d="M104.435 23.1468C103.09 23.1468 101.988 24.2397 101.988 25.6024V28.8135C102.606 28.2873 103.682 27.95 105.417 28.031C106.345 28.0714 107.34 28.3278 107.34 28.3278V29.3667C106.842 29.1103 106.251 28.881 105.484 28.827C104.166 28.7325 103.373 29.3802 103.373 30.5135C103.373 31.6603 104.166 32.3079 105.484 32.2C106.251 32.146 106.842 31.9032 107.34 31.6603V32.6992C107.34 32.6992 106.358 32.9556 105.417 32.996C103.682 33.077 102.606 32.7397 101.988 32.2135V37.8802H105.578C106.923 37.8802 108.026 36.7873 108.026 35.4246V23.1468H104.435Z" fill="url(#paint4_linear_10882_6117)"/>
</g>
<g clip-path="url(#clip4_10882_6117)">
<rect x="88" y="-23" width="108" height="108" rx="8" fill="white"/>
<path d="M146.15 23.8181H138.85V37.1819H146.15V23.8181Z" fill="#FF5F00"/>
<path d="M139.313 30.5C139.313 27.7847 140.565 25.3764 142.488 23.8181C141.075 22.6847 139.29 22 137.343 22C132.731 22 129 25.8014 129 30.5C129 35.1986 132.731 39 137.343 39C139.29 39 141.075 38.3153 142.488 37.1819C140.565 35.6472 139.313 33.2153 139.313 30.5Z" fill="#EB001B"/>
<path d="M156 30.5C156 35.1986 152.269 39 147.657 39C145.71 39 143.925 38.3153 142.512 37.1819C144.458 35.6236 145.687 33.2153 145.687 30.5C145.687 27.7847 144.435 25.3764 142.512 23.8181C143.925 22.6847 145.71 22 147.657 22C152.269 22 156 25.825 156 30.5Z" fill="#F79E1B"/>
</g>
<path d="M199.383 24.125C199.383 23.8594 199.341 23.625 199.258 23.4219C199.18 23.2135 199.039 23.026 198.836 22.8594C198.638 22.6927 198.362 22.5339 198.008 22.3828C197.659 22.2318 197.216 22.0781 196.68 21.9219C196.117 21.7552 195.609 21.5703 195.156 21.3672C194.703 21.1589 194.315 20.9219 193.992 20.6562C193.669 20.3906 193.422 20.0859 193.25 19.7422C193.078 19.3984 192.992 19.0052 192.992 18.5625C192.992 18.1198 193.083 17.7109 193.266 17.3359C193.448 16.9609 193.708 16.6354 194.047 16.3594C194.391 16.0781 194.799 15.8594 195.273 15.7031C195.747 15.5469 196.276 15.4688 196.859 15.4688C197.714 15.4688 198.438 15.6328 199.031 15.9609C199.63 16.2839 200.086 16.7083 200.398 17.2344C200.711 17.7552 200.867 18.3125 200.867 18.9062H199.367C199.367 18.4792 199.276 18.1016 199.094 17.7734C198.911 17.4401 198.635 17.1797 198.266 16.9922C197.896 16.7995 197.427 16.7031 196.859 16.7031C196.323 16.7031 195.88 16.7839 195.531 16.9453C195.182 17.1068 194.922 17.3255 194.75 17.6016C194.583 17.8776 194.5 18.1927 194.5 18.5469C194.5 18.7865 194.549 19.0052 194.648 19.2031C194.753 19.3958 194.911 19.5755 195.125 19.7422C195.344 19.9089 195.62 20.0625 195.953 20.2031C196.292 20.3438 196.695 20.4792 197.164 20.6094C197.81 20.7917 198.367 20.9948 198.836 21.2188C199.305 21.4427 199.69 21.6953 199.992 21.9766C200.299 22.2526 200.526 22.5677 200.672 22.9219C200.823 23.2708 200.898 23.6667 200.898 24.1094C200.898 24.5729 200.805 24.9922 200.617 25.3672C200.43 25.7422 200.161 26.0625 199.812 26.3281C199.464 26.5938 199.044 26.7995 198.555 26.9453C198.07 27.0859 197.529 27.1562 196.93 27.1562C196.404 27.1562 195.885 27.0833 195.375 26.9375C194.87 26.7917 194.409 26.5729 193.992 26.2812C193.581 25.9896 193.25 25.6302 193 25.2031C192.755 24.7708 192.633 24.2708 192.633 23.7031H194.133C194.133 24.0938 194.208 24.4297 194.359 24.7109C194.51 24.987 194.716 25.2161 194.977 25.3984C195.242 25.5807 195.542 25.7161 195.875 25.8047C196.214 25.888 196.565 25.9297 196.93 25.9297C197.456 25.9297 197.901 25.8568 198.266 25.7109C198.63 25.5651 198.906 25.3568 199.094 25.0859C199.286 24.8151 199.383 24.4948 199.383 24.125ZM206.259 27.1562C205.671 27.1562 205.137 27.0573 204.658 26.8594C204.184 26.6562 203.775 26.3724 203.431 26.0078C203.093 25.6432 202.832 25.2109 202.65 24.7109C202.468 24.2109 202.377 23.6641 202.377 23.0703V22.7422C202.377 22.0547 202.478 21.4427 202.681 20.9062C202.884 20.3646 203.16 19.9062 203.509 19.5312C203.858 19.1562 204.254 18.8724 204.697 18.6797C205.14 18.487 205.598 18.3906 206.072 18.3906C206.676 18.3906 207.197 18.4948 207.634 18.7031C208.077 18.9115 208.439 19.2031 208.72 19.5781C209.002 19.9479 209.21 20.3854 209.345 20.8906C209.481 21.3906 209.548 21.9375 209.548 22.5312V23.1797H203.236V22H208.103V21.8906C208.082 21.5156 208.004 21.151 207.869 20.7969C207.739 20.4427 207.53 20.151 207.244 19.9219C206.957 19.6927 206.567 19.5781 206.072 19.5781C205.744 19.5781 205.442 19.6484 205.166 19.7891C204.89 19.9245 204.653 20.1276 204.455 20.3984C204.257 20.6693 204.103 21 203.994 21.3906C203.884 21.7812 203.83 22.2318 203.83 22.7422V23.0703C203.83 23.4714 203.884 23.849 203.994 24.2031C204.108 24.5521 204.272 24.8594 204.486 25.125C204.705 25.3906 204.968 25.599 205.275 25.75C205.587 25.901 205.942 25.9766 206.337 25.9766C206.848 25.9766 207.28 25.8724 207.634 25.6641C207.989 25.4557 208.298 25.1771 208.564 24.8281L209.439 25.5234C209.257 25.7995 209.025 26.0625 208.744 26.3125C208.462 26.5625 208.116 26.7656 207.705 26.9219C207.298 27.0781 206.817 27.1562 206.259 27.1562ZM214.769 25.9688C215.112 25.9688 215.43 25.8984 215.722 25.7578C216.014 25.6172 216.253 25.4245 216.441 25.1797C216.628 24.9297 216.735 24.6458 216.761 24.3281H218.136C218.11 24.8281 217.941 25.2943 217.628 25.7266C217.321 26.1536 216.917 26.5 216.417 26.7656C215.917 27.026 215.368 27.1562 214.769 27.1562C214.133 27.1562 213.579 27.0443 213.105 26.8203C212.636 26.5964 212.245 26.2891 211.933 25.8984C211.626 25.5078 211.394 25.0599 211.237 24.5547C211.086 24.0443 211.011 23.5052 211.011 22.9375V22.6094C211.011 22.0417 211.086 21.5052 211.237 21C211.394 20.4896 211.626 20.0391 211.933 19.6484C212.245 19.2578 212.636 18.9505 213.105 18.7266C213.579 18.5026 214.133 18.3906 214.769 18.3906C215.43 18.3906 216.008 18.526 216.503 18.7969C216.998 19.0625 217.386 19.4271 217.667 19.8906C217.954 20.349 218.11 20.8698 218.136 21.4531H216.761C216.735 21.1042 216.636 20.7891 216.464 20.5078C216.297 20.2266 216.068 20.0026 215.777 19.8359C215.49 19.6641 215.154 19.5781 214.769 19.5781C214.326 19.5781 213.954 19.6667 213.652 19.8438C213.355 20.0156 213.118 20.25 212.941 20.5469C212.769 20.8385 212.644 21.1641 212.566 21.5234C212.493 21.8776 212.456 22.2396 212.456 22.6094V22.9375C212.456 23.3073 212.493 23.6719 212.566 24.0312C212.639 24.3906 212.761 24.7161 212.933 25.0078C213.11 25.2995 213.347 25.5339 213.644 25.7109C213.946 25.8828 214.321 25.9688 214.769 25.9688ZM225.083 25.0469V18.5469H226.536V27H225.153L225.083 25.0469ZM225.356 23.2656L225.958 23.25C225.958 23.8125 225.898 24.3333 225.778 24.8125C225.664 25.2865 225.476 25.6979 225.216 26.0469C224.955 26.3958 224.614 26.6693 224.192 26.8672C223.77 27.0599 223.257 27.1562 222.653 27.1562C222.242 27.1562 221.864 27.0964 221.52 26.9766C221.182 26.8568 220.89 26.6719 220.645 26.4219C220.401 26.1719 220.21 25.8464 220.075 25.4453C219.945 25.0443 219.88 24.5625 219.88 24V18.5469H221.325V24.0156C221.325 24.3958 221.367 24.7109 221.45 24.9609C221.539 25.2057 221.656 25.401 221.802 25.5469C221.953 25.6875 222.119 25.7865 222.302 25.8438C222.489 25.901 222.682 25.9297 222.88 25.9297C223.494 25.9297 223.981 25.8125 224.341 25.5781C224.7 25.3385 224.958 25.0182 225.114 24.6172C225.276 24.2109 225.356 23.7604 225.356 23.2656ZM230.334 19.875V27H228.889V18.5469H230.295L230.334 19.875ZM232.975 18.5L232.967 19.8438C232.847 19.8177 232.733 19.8021 232.623 19.7969C232.519 19.7865 232.399 19.7812 232.264 19.7812C231.931 19.7812 231.636 19.8333 231.381 19.9375C231.126 20.0417 230.91 20.1875 230.733 20.375C230.556 20.5625 230.415 20.7865 230.311 21.0469C230.212 21.3021 230.147 21.5833 230.116 21.8906L229.709 22.125C229.709 21.6146 229.759 21.1354 229.858 20.6875C229.962 20.2396 230.121 19.8438 230.334 19.5C230.548 19.151 230.819 18.8802 231.147 18.6875C231.48 18.4896 231.876 18.3906 232.334 18.3906C232.439 18.3906 232.558 18.4036 232.694 18.4297C232.829 18.4505 232.923 18.474 232.975 18.5ZM237.812 27.1562C237.224 27.1562 236.69 27.0573 236.211 26.8594C235.737 26.6562 235.328 26.3724 234.984 26.0078C234.646 25.6432 234.385 25.2109 234.203 24.7109C234.021 24.2109 233.93 23.6641 233.93 23.0703V22.7422C233.93 22.0547 234.031 21.4427 234.234 20.9062C234.438 20.3646 234.714 19.9062 235.062 19.5312C235.411 19.1562 235.807 18.8724 236.25 18.6797C236.693 18.487 237.151 18.3906 237.625 18.3906C238.229 18.3906 238.75 18.4948 239.188 18.7031C239.63 18.9115 239.992 19.2031 240.273 19.5781C240.555 19.9479 240.763 20.3854 240.898 20.8906C241.034 21.3906 241.102 21.9375 241.102 22.5312V23.1797H234.789V22H239.656V21.8906C239.635 21.5156 239.557 21.151 239.422 20.7969C239.292 20.4427 239.083 20.151 238.797 19.9219C238.51 19.6927 238.12 19.5781 237.625 19.5781C237.297 19.5781 236.995 19.6484 236.719 19.7891C236.443 19.9245 236.206 20.1276 236.008 20.3984C235.81 20.6693 235.656 21 235.547 21.3906C235.438 21.7812 235.383 22.2318 235.383 22.7422V23.0703C235.383 23.4714 235.438 23.849 235.547 24.2031C235.661 24.5521 235.826 24.8594 236.039 25.125C236.258 25.3906 236.521 25.599 236.828 25.75C237.141 25.901 237.495 25.9766 237.891 25.9766C238.401 25.9766 238.833 25.8724 239.188 25.6641C239.542 25.4557 239.852 25.1771 240.117 24.8281L240.992 25.5234C240.81 25.7995 240.578 26.0625 240.297 26.3125C240.016 26.5625 239.669 26.7656 239.258 26.9219C238.852 27.0781 238.37 27.1562 237.812 27.1562ZM254.144 23.3828H255.644C255.566 24.1016 255.36 24.7448 255.027 25.3125C254.693 25.8802 254.222 26.3307 253.612 26.6641C253.003 26.9922 252.243 27.1562 251.331 27.1562C250.665 27.1562 250.058 27.0312 249.511 26.7812C248.969 26.5312 248.503 26.1771 248.112 25.7188C247.722 25.2552 247.42 24.7005 247.206 24.0547C246.998 23.4036 246.894 22.6797 246.894 21.8828V20.75C246.894 19.9531 246.998 19.2318 247.206 18.5859C247.42 17.9349 247.724 17.3776 248.12 16.9141C248.521 16.4505 249.003 16.0938 249.566 15.8438C250.128 15.5938 250.761 15.4688 251.464 15.4688C252.323 15.4688 253.05 15.6302 253.644 15.9531C254.237 16.276 254.698 16.724 255.027 17.2969C255.36 17.8646 255.566 18.5234 255.644 19.2734H254.144C254.071 18.7422 253.935 18.2865 253.737 17.9062C253.54 17.5208 253.258 17.224 252.894 17.0156C252.529 16.8073 252.053 16.7031 251.464 16.7031C250.959 16.7031 250.514 16.7995 250.128 16.9922C249.748 17.1849 249.428 17.4583 249.167 17.8125C248.912 18.1667 248.719 18.5911 248.589 19.0859C248.459 19.5807 248.394 20.1302 248.394 20.7344V21.8828C248.394 22.4401 248.451 22.9635 248.566 23.4531C248.685 23.9427 248.865 24.3724 249.105 24.7422C249.344 25.112 249.649 25.4036 250.019 25.6172C250.389 25.8255 250.826 25.9297 251.331 25.9297C251.972 25.9297 252.482 25.8281 252.862 25.625C253.243 25.4219 253.529 25.1302 253.722 24.75C253.92 24.3698 254.06 23.9141 254.144 23.3828ZM259.075 19.875V27H257.63V18.5469H259.036L259.075 19.875ZM261.716 18.5L261.708 19.8438C261.588 19.8177 261.473 19.8021 261.364 19.7969C261.26 19.7865 261.14 19.7812 261.005 19.7812C260.671 19.7812 260.377 19.8333 260.122 19.9375C259.867 20.0417 259.651 20.1875 259.473 20.375C259.296 20.5625 259.156 20.7865 259.052 21.0469C258.953 21.3021 258.887 21.5833 258.856 21.8906L258.45 22.125C258.45 21.6146 258.499 21.1354 258.598 20.6875C258.703 20.2396 258.861 19.8438 259.075 19.5C259.289 19.151 259.559 18.8802 259.887 18.6875C260.221 18.4896 260.617 18.3906 261.075 18.3906C261.179 18.3906 261.299 18.4036 261.434 18.4297C261.57 18.4505 261.664 18.474 261.716 18.5ZM266.553 27.1562C265.965 27.1562 265.431 27.0573 264.952 26.8594C264.478 26.6562 264.069 26.3724 263.725 26.0078C263.386 25.6432 263.126 25.2109 262.944 24.7109C262.761 24.2109 262.67 23.6641 262.67 23.0703V22.7422C262.67 22.0547 262.772 21.4427 262.975 20.9062C263.178 20.3646 263.454 19.9062 263.803 19.5312C264.152 19.1562 264.548 18.8724 264.991 18.6797C265.433 18.487 265.892 18.3906 266.366 18.3906C266.97 18.3906 267.491 18.4948 267.928 18.7031C268.371 18.9115 268.733 19.2031 269.014 19.5781C269.295 19.9479 269.504 20.3854 269.639 20.8906C269.774 21.3906 269.842 21.9375 269.842 22.5312V23.1797H263.53V22H268.397V21.8906C268.376 21.5156 268.298 21.151 268.162 20.7969C268.032 20.4427 267.824 20.151 267.537 19.9219C267.251 19.6927 266.86 19.5781 266.366 19.5781C266.037 19.5781 265.735 19.6484 265.459 19.7891C265.183 19.9245 264.946 20.1276 264.748 20.3984C264.551 20.6693 264.397 21 264.287 21.3906C264.178 21.7812 264.123 22.2318 264.123 22.7422V23.0703C264.123 23.4714 264.178 23.849 264.287 24.2031C264.402 24.5521 264.566 24.8594 264.78 25.125C264.998 25.3906 265.261 25.599 265.569 25.75C265.881 25.901 266.235 25.9766 266.631 25.9766C267.142 25.9766 267.574 25.8724 267.928 25.6641C268.282 25.4557 268.592 25.1771 268.858 24.8281L269.733 25.5234C269.551 25.7995 269.319 26.0625 269.037 26.3125C268.756 26.5625 268.41 26.7656 267.998 26.9219C267.592 27.0781 267.11 27.1562 266.553 27.1562ZM277.008 25.3594V15H278.461V27H277.133L277.008 25.3594ZM271.32 22.8672V22.7031C271.32 22.0573 271.398 21.4714 271.555 20.9453C271.716 20.4141 271.943 19.9583 272.234 19.5781C272.531 19.1979 272.883 18.9062 273.289 18.7031C273.701 18.4948 274.159 18.3906 274.664 18.3906C275.195 18.3906 275.659 18.4844 276.055 18.6719C276.456 18.8542 276.794 19.1224 277.07 19.4766C277.352 19.8255 277.573 20.2474 277.734 20.7422C277.896 21.237 278.008 21.7969 278.07 22.4219V23.1406C278.013 23.7604 277.901 24.3177 277.734 24.8125C277.573 25.3073 277.352 25.7292 277.07 26.0781C276.794 26.4271 276.456 26.6953 276.055 26.8828C275.654 27.0651 275.185 27.1562 274.648 27.1562C274.154 27.1562 273.701 27.0495 273.289 26.8359C272.883 26.6224 272.531 26.3229 272.234 25.9375C271.943 25.5521 271.716 25.099 271.555 24.5781C271.398 24.0521 271.32 23.4818 271.32 22.8672ZM272.773 22.7031V22.8672C272.773 23.2891 272.815 23.6849 272.898 24.0547C272.987 24.4245 273.122 24.75 273.305 25.0312C273.487 25.3125 273.719 25.5339 274 25.6953C274.281 25.8516 274.617 25.9297 275.008 25.9297C275.487 25.9297 275.88 25.8281 276.188 25.625C276.5 25.4219 276.75 25.1536 276.938 24.8203C277.125 24.487 277.271 24.125 277.375 23.7344V21.8516C277.312 21.5651 277.221 21.2891 277.102 21.0234C276.987 20.7526 276.836 20.513 276.648 20.3047C276.466 20.0911 276.24 19.9219 275.969 19.7969C275.703 19.6719 275.388 19.6094 275.023 19.6094C274.628 19.6094 274.286 19.6927 274 19.8594C273.719 20.0208 273.487 20.2448 273.305 20.5312C273.122 20.8125 272.987 21.1406 272.898 21.5156C272.815 21.8854 272.773 22.2812 272.773 22.7031ZM282.431 18.5469V27H280.978V18.5469H282.431ZM280.869 16.3047C280.869 16.0703 280.939 15.8724 281.08 15.7109C281.226 15.5495 281.439 15.4688 281.72 15.4688C281.996 15.4688 282.207 15.5495 282.353 15.7109C282.504 15.8724 282.58 16.0703 282.58 16.3047C282.58 16.5286 282.504 16.7214 282.353 16.8828C282.207 17.0391 281.996 17.1172 281.72 17.1172C281.439 17.1172 281.226 17.0391 281.08 16.8828C280.939 16.7214 280.869 16.5286 280.869 16.3047ZM288.441 18.5469V19.6562H283.87V18.5469H288.441ZM285.417 16.4922H286.863V24.9062C286.863 25.1927 286.907 25.4089 286.995 25.5547C287.084 25.7005 287.198 25.7969 287.339 25.8438C287.48 25.8906 287.631 25.9141 287.792 25.9141C287.912 25.9141 288.037 25.9036 288.167 25.8828C288.303 25.8568 288.404 25.8359 288.472 25.8203L288.48 27C288.365 27.0365 288.214 27.0703 288.027 27.1016C287.844 27.138 287.623 27.1562 287.363 27.1562C287.008 27.1562 286.683 27.0859 286.386 26.9453C286.089 26.8047 285.852 26.5703 285.675 26.2422C285.503 25.9089 285.417 25.4609 285.417 24.8984V16.4922ZM301.491 23.3828H302.991C302.912 24.1016 302.707 24.7448 302.373 25.3125C302.04 25.8802 301.569 26.3307 300.959 26.6641C300.35 26.9922 299.59 27.1562 298.678 27.1562C298.011 27.1562 297.405 27.0312 296.858 26.7812C296.316 26.5312 295.85 26.1771 295.459 25.7188C295.069 25.2552 294.767 24.7005 294.553 24.0547C294.345 23.4036 294.241 22.6797 294.241 21.8828V20.75C294.241 19.9531 294.345 19.2318 294.553 18.5859C294.767 17.9349 295.071 17.3776 295.467 16.9141C295.868 16.4505 296.35 16.0938 296.912 15.8438C297.475 15.5938 298.108 15.4688 298.811 15.4688C299.67 15.4688 300.397 15.6302 300.991 15.9531C301.584 16.276 302.045 16.724 302.373 17.2969C302.707 17.8646 302.912 18.5234 302.991 19.2734H301.491C301.418 18.7422 301.282 18.2865 301.084 17.9062C300.886 17.5208 300.605 17.224 300.241 17.0156C299.876 16.8073 299.399 16.7031 298.811 16.7031C298.306 16.7031 297.86 16.7995 297.475 16.9922C297.095 17.1849 296.774 17.4583 296.514 17.8125C296.259 18.1667 296.066 18.5911 295.936 19.0859C295.806 19.5807 295.741 20.1302 295.741 20.7344V21.8828C295.741 22.4401 295.798 22.9635 295.912 23.4531C296.032 23.9427 296.212 24.3724 296.452 24.7422C296.691 25.112 296.996 25.4036 297.366 25.6172C297.735 25.8255 298.173 25.9297 298.678 25.9297C299.319 25.9297 299.829 25.8281 300.209 25.625C300.59 25.4219 300.876 25.1302 301.069 24.75C301.267 24.3698 301.407 23.9141 301.491 23.3828ZM309.961 25.5547V21.2031C309.961 20.8698 309.893 20.5807 309.758 20.3359C309.628 20.0859 309.43 19.8932 309.164 19.7578C308.898 19.6224 308.57 19.5547 308.18 19.5547C307.815 19.5547 307.495 19.6172 307.219 19.7422C306.948 19.8672 306.734 20.0312 306.578 20.2344C306.427 20.4375 306.352 20.6562 306.352 20.8906H304.906C304.906 20.5885 304.984 20.2891 305.141 19.9922C305.297 19.6953 305.521 19.4271 305.812 19.1875C306.109 18.9427 306.464 18.75 306.875 18.6094C307.292 18.4635 307.755 18.3906 308.266 18.3906C308.88 18.3906 309.422 18.4948 309.891 18.7031C310.365 18.9115 310.734 19.2266 311 19.6484C311.271 20.0651 311.406 20.5885 311.406 21.2188V25.1562C311.406 25.4375 311.43 25.737 311.477 26.0547C311.529 26.3724 311.604 26.6458 311.703 26.875V27H310.195C310.122 26.8333 310.065 26.612 310.023 26.3359C309.982 26.0547 309.961 25.7943 309.961 25.5547ZM310.211 21.875L310.227 22.8906H308.766C308.354 22.8906 307.987 22.9245 307.664 22.9922C307.341 23.0547 307.07 23.151 306.852 23.2812C306.633 23.4115 306.466 23.5755 306.352 23.7734C306.237 23.9661 306.18 24.1927 306.18 24.4531C306.18 24.7188 306.24 24.9609 306.359 25.1797C306.479 25.3984 306.659 25.5729 306.898 25.7031C307.143 25.8281 307.443 25.8906 307.797 25.8906C308.24 25.8906 308.63 25.7969 308.969 25.6094C309.307 25.4219 309.576 25.1927 309.773 24.9219C309.977 24.651 310.086 24.388 310.102 24.1328L310.719 24.8281C310.682 25.0469 310.583 25.2891 310.422 25.5547C310.26 25.8203 310.044 26.0755 309.773 26.3203C309.508 26.5599 309.19 26.7604 308.82 26.9219C308.456 27.0781 308.044 27.1562 307.586 27.1562C307.013 27.1562 306.51 27.0443 306.078 26.8203C305.651 26.5964 305.318 26.2969 305.078 25.9219C304.844 25.5417 304.727 25.1172 304.727 24.6484C304.727 24.1953 304.815 23.7969 304.992 23.4531C305.169 23.1042 305.424 22.8151 305.758 22.5859C306.091 22.3516 306.492 22.1745 306.961 22.0547C307.43 21.9349 307.953 21.875 308.531 21.875H310.211ZM315.275 19.875V27H313.83V18.5469H315.236L315.275 19.875ZM317.916 18.5L317.908 19.8438C317.788 19.8177 317.673 19.8021 317.564 19.7969C317.46 19.7865 317.34 19.7812 317.205 19.7812C316.871 19.7812 316.577 19.8333 316.322 19.9375C316.067 20.0417 315.851 20.1875 315.673 20.375C315.496 20.5625 315.356 20.7865 315.252 21.0469C315.153 21.3021 315.088 21.5833 315.056 21.8906L314.65 22.125C314.65 21.6146 314.699 21.1354 314.798 20.6875C314.903 20.2396 315.061 19.8438 315.275 19.5C315.489 19.151 315.759 18.8802 316.088 18.6875C316.421 18.4896 316.817 18.3906 317.275 18.3906C317.379 18.3906 317.499 18.4036 317.634 18.4297C317.77 18.4505 317.864 18.474 317.916 18.5ZM324.573 25.3594V15H326.027V27H324.698L324.573 25.3594ZM318.886 22.8672V22.7031C318.886 22.0573 318.964 21.4714 319.12 20.9453C319.282 20.4141 319.508 19.9583 319.8 19.5781C320.097 19.1979 320.448 18.9062 320.855 18.7031C321.266 18.4948 321.724 18.3906 322.23 18.3906C322.761 18.3906 323.224 18.4844 323.62 18.6719C324.021 18.8542 324.36 19.1224 324.636 19.4766C324.917 19.8255 325.139 20.2474 325.3 20.7422C325.461 21.237 325.573 21.7969 325.636 22.4219V23.1406C325.579 23.7604 325.467 24.3177 325.3 24.8125C325.139 25.3073 324.917 25.7292 324.636 26.0781C324.36 26.4271 324.021 26.6953 323.62 26.8828C323.219 27.0651 322.751 27.1562 322.214 27.1562C321.719 27.1562 321.266 27.0495 320.855 26.8359C320.448 26.6224 320.097 26.3229 319.8 25.9375C319.508 25.5521 319.282 25.099 319.12 24.5781C318.964 24.0521 318.886 23.4818 318.886 22.8672ZM320.339 22.7031V22.8672C320.339 23.2891 320.381 23.6849 320.464 24.0547C320.553 24.4245 320.688 24.75 320.87 25.0312C321.053 25.3125 321.284 25.5339 321.566 25.6953C321.847 25.8516 322.183 25.9297 322.573 25.9297C323.053 25.9297 323.446 25.8281 323.753 25.625C324.066 25.4219 324.316 25.1536 324.503 24.8203C324.691 24.487 324.836 24.125 324.941 23.7344V21.8516C324.878 21.5651 324.787 21.2891 324.667 21.0234C324.553 20.7526 324.402 20.513 324.214 20.3047C324.032 20.0911 323.805 19.9219 323.534 19.7969C323.269 19.6719 322.954 19.6094 322.589 19.6094C322.193 19.6094 321.852 19.6927 321.566 19.8594C321.284 20.0208 321.053 20.2448 320.87 20.5312C320.688 20.8125 320.553 21.1406 320.464 21.5156C320.381 21.8854 320.339 22.2812 320.339 22.7031ZM336.959 22.5391H333.92V21.3125H336.959C337.548 21.3125 338.024 21.2188 338.389 21.0312C338.754 20.8438 339.019 20.5833 339.186 20.25C339.358 19.9167 339.444 19.5365 339.444 19.1094C339.444 18.7188 339.358 18.3516 339.186 18.0078C339.019 17.6641 338.754 17.388 338.389 17.1797C338.024 16.9661 337.548 16.8594 336.959 16.8594H334.272V27H332.764V15.625H336.959C337.819 15.625 338.545 15.7734 339.139 16.0703C339.733 16.3672 340.183 16.7786 340.491 17.3047C340.798 17.8255 340.952 18.4219 340.952 19.0938C340.952 19.8229 340.798 20.4453 340.491 20.9609C340.183 21.4766 339.733 21.8698 339.139 22.1406C338.545 22.4062 337.819 22.5391 336.959 22.5391ZM347.68 25.5547V21.2031C347.68 20.8698 347.612 20.5807 347.477 20.3359C347.346 20.0859 347.148 19.8932 346.883 19.7578C346.617 19.6224 346.289 19.5547 345.898 19.5547C345.534 19.5547 345.214 19.6172 344.938 19.7422C344.667 19.8672 344.453 20.0312 344.297 20.2344C344.146 20.4375 344.07 20.6562 344.07 20.8906H342.625C342.625 20.5885 342.703 20.2891 342.859 19.9922C343.016 19.6953 343.24 19.4271 343.531 19.1875C343.828 18.9427 344.182 18.75 344.594 18.6094C345.01 18.4635 345.474 18.3906 345.984 18.3906C346.599 18.3906 347.141 18.4948 347.609 18.7031C348.083 18.9115 348.453 19.2266 348.719 19.6484C348.99 20.0651 349.125 20.5885 349.125 21.2188V25.1562C349.125 25.4375 349.148 25.737 349.195 26.0547C349.247 26.3724 349.323 26.6458 349.422 26.875V27H347.914C347.841 26.8333 347.784 26.612 347.742 26.3359C347.701 26.0547 347.68 25.7943 347.68 25.5547ZM347.93 21.875L347.945 22.8906H346.484C346.073 22.8906 345.706 22.9245 345.383 22.9922C345.06 23.0547 344.789 23.151 344.57 23.2812C344.352 23.4115 344.185 23.5755 344.07 23.7734C343.956 23.9661 343.898 24.1927 343.898 24.4531C343.898 24.7188 343.958 24.9609 344.078 25.1797C344.198 25.3984 344.378 25.5729 344.617 25.7031C344.862 25.8281 345.161 25.8906 345.516 25.8906C345.958 25.8906 346.349 25.7969 346.688 25.6094C347.026 25.4219 347.294 25.1927 347.492 24.9219C347.695 24.651 347.805 24.388 347.82 24.1328L348.438 24.8281C348.401 25.0469 348.302 25.2891 348.141 25.5547C347.979 25.8203 347.763 26.0755 347.492 26.3203C347.227 26.5599 346.909 26.7604 346.539 26.9219C346.174 27.0781 345.763 27.1562 345.305 27.1562C344.732 27.1562 344.229 27.0443 343.797 26.8203C343.37 26.5964 343.036 26.2969 342.797 25.9219C342.562 25.5417 342.445 25.1172 342.445 24.6484C342.445 24.1953 342.534 23.7969 342.711 23.4531C342.888 23.1042 343.143 22.8151 343.477 22.5859C343.81 22.3516 344.211 22.1745 344.68 22.0547C345.148 21.9349 345.672 21.875 346.25 21.875H347.93ZM353.798 26.125L356.15 18.5469H357.697L354.306 28.3047C354.228 28.513 354.124 28.737 353.994 28.9766C353.869 29.2214 353.707 29.4531 353.509 29.6719C353.311 29.8906 353.072 30.0677 352.791 30.2031C352.515 30.3438 352.184 30.4141 351.798 30.4141C351.684 30.4141 351.538 30.3984 351.361 30.3672C351.184 30.3359 351.059 30.3099 350.986 30.2891L350.978 29.1172C351.02 29.1224 351.085 29.1276 351.173 29.1328C351.267 29.1432 351.332 29.1484 351.369 29.1484C351.697 29.1484 351.976 29.1042 352.205 29.0156C352.434 28.9323 352.627 28.7891 352.783 28.5859C352.944 28.388 353.082 28.1146 353.197 27.7656L353.798 26.125ZM352.072 18.5469L354.267 25.1094L354.642 26.6328L353.603 27.1641L350.494 18.5469H352.072ZM360.589 20.2266V27H359.136V18.5469H360.511L360.589 20.2266ZM360.292 22.4531L359.62 22.4297C359.626 21.8516 359.701 21.3177 359.847 20.8281C359.993 20.3333 360.209 19.9036 360.495 19.5391C360.782 19.1745 361.139 18.8932 361.566 18.6953C361.993 18.4922 362.488 18.3906 363.05 18.3906C363.446 18.3906 363.81 18.4479 364.144 18.5625C364.477 18.6719 364.766 18.8464 365.011 19.0859C365.256 19.3255 365.446 19.6328 365.581 20.0078C365.717 20.3828 365.784 20.8359 365.784 21.3672V27H364.339V21.4375C364.339 20.9948 364.264 20.6406 364.113 20.375C363.967 20.1094 363.758 19.9167 363.488 19.7969C363.217 19.6719 362.899 19.6094 362.534 19.6094C362.107 19.6094 361.751 19.6849 361.464 19.8359C361.178 19.987 360.948 20.1953 360.777 20.4609C360.605 20.7266 360.48 21.0312 360.402 21.375C360.329 21.7135 360.292 22.0729 360.292 22.4531ZM365.769 21.6562L364.8 21.9531C364.805 21.4896 364.881 21.0443 365.027 20.6172C365.178 20.1901 365.394 19.8099 365.675 19.4766C365.961 19.1432 366.313 18.8802 366.73 18.6875C367.146 18.4896 367.623 18.3906 368.159 18.3906C368.613 18.3906 369.014 18.4505 369.363 18.5703C369.717 18.6901 370.014 18.875 370.253 19.125C370.498 19.3698 370.683 19.6849 370.808 20.0703C370.933 20.4557 370.995 20.9141 370.995 21.4453V27H369.542V21.4297C369.542 20.9557 369.467 20.5885 369.316 20.3281C369.17 20.0625 368.961 19.8776 368.691 19.7734C368.425 19.6641 368.107 19.6094 367.738 19.6094C367.42 19.6094 367.139 19.6641 366.894 19.7734C366.649 19.8828 366.443 20.0339 366.277 20.2266C366.11 20.4141 365.982 20.6302 365.894 20.875C365.81 21.1198 365.769 21.3802 365.769 21.6562ZM376.841 27.1562C376.252 27.1562 375.718 27.0573 375.239 26.8594C374.765 26.6562 374.356 26.3724 374.012 26.0078C373.674 25.6432 373.414 25.2109 373.231 24.7109C373.049 24.2109 372.958 23.6641 372.958 23.0703V22.7422C372.958 22.0547 373.059 21.4427 373.262 20.9062C373.466 20.3646 373.742 19.9062 374.091 19.5312C374.44 19.1562 374.835 18.8724 375.278 18.6797C375.721 18.487 376.179 18.3906 376.653 18.3906C377.257 18.3906 377.778 18.4948 378.216 18.7031C378.658 18.9115 379.02 19.2031 379.302 19.5781C379.583 19.9479 379.791 20.3854 379.927 20.8906C380.062 21.3906 380.13 21.9375 380.13 22.5312V23.1797H373.817V22H378.684V21.8906C378.664 21.5156 378.585 21.151 378.45 20.7969C378.32 20.4427 378.111 20.151 377.825 19.9219C377.539 19.6927 377.148 19.5781 376.653 19.5781C376.325 19.5781 376.023 19.6484 375.747 19.7891C375.471 19.9245 375.234 20.1276 375.036 20.3984C374.838 20.6693 374.684 21 374.575 21.3906C374.466 21.7812 374.411 22.2318 374.411 22.7422V23.0703C374.411 23.4714 374.466 23.849 374.575 24.2031C374.69 24.5521 374.854 24.8594 375.067 25.125C375.286 25.3906 375.549 25.599 375.856 25.75C376.169 25.901 376.523 25.9766 376.919 25.9766C377.429 25.9766 377.861 25.8724 378.216 25.6641C378.57 25.4557 378.88 25.1771 379.145 24.8281L380.02 25.5234C379.838 25.7995 379.606 26.0625 379.325 26.3125C379.044 26.5625 378.697 26.7656 378.286 26.9219C377.88 27.0781 377.398 27.1562 376.841 27.1562ZM383.413 20.3516V27H381.967V18.5469H383.334L383.413 20.3516ZM383.069 22.4531L382.467 22.4297C382.472 21.8516 382.558 21.3177 382.725 20.8281C382.892 20.3333 383.126 19.9036 383.428 19.5391C383.73 19.1745 384.09 18.8932 384.506 18.6953C384.928 18.4922 385.394 18.3906 385.905 18.3906C386.321 18.3906 386.696 18.4479 387.03 18.5625C387.363 18.6719 387.647 18.849 387.881 19.0938C388.121 19.3385 388.303 19.6562 388.428 20.0469C388.553 20.4323 388.616 20.9036 388.616 21.4609V27H387.163V21.4453C387.163 21.0026 387.097 20.6484 386.967 20.3828C386.837 20.112 386.647 19.9167 386.397 19.7969C386.147 19.6719 385.84 19.6094 385.475 19.6094C385.116 19.6094 384.788 19.6849 384.491 19.8359C384.199 19.987 383.946 20.1953 383.733 20.4609C383.524 20.7266 383.36 21.0312 383.241 21.375C383.126 21.7135 383.069 22.0729 383.069 22.4531ZM394.5 18.5469V19.6562H389.93V18.5469H394.5ZM391.477 16.4922H392.922V24.9062C392.922 25.1927 392.966 25.4089 393.055 25.5547C393.143 25.7005 393.258 25.7969 393.398 25.8438C393.539 25.8906 393.69 25.9141 393.852 25.9141C393.971 25.9141 394.096 25.9036 394.227 25.8828C394.362 25.8568 394.464 25.8359 394.531 25.8203L394.539 27C394.424 27.0365 394.273 27.0703 394.086 27.1016C393.904 27.138 393.682 27.1562 393.422 27.1562C393.068 27.1562 392.742 27.0859 392.445 26.9453C392.148 26.8047 391.911 26.5703 391.734 26.2422C391.562 25.9089 391.477 25.4609 391.477 24.8984V16.4922Z" fill="#212121"/>
<path d="M196.488 36.7578V46H195.282V36.7578H196.488ZM199.458 36.7578V37.7607H192.317V36.7578H199.458ZM201.976 36.25V46H200.802V36.25H201.976ZM201.697 42.3057L201.208 42.2866C201.212 41.8169 201.282 41.3831 201.418 40.9854C201.553 40.5833 201.743 40.2342 201.989 39.938C202.234 39.6418 202.526 39.4132 202.865 39.2524C203.208 39.0874 203.586 39.0049 204.001 39.0049C204.34 39.0049 204.644 39.0514 204.915 39.1445C205.186 39.2334 205.417 39.3773 205.607 39.5762C205.802 39.7751 205.95 40.0332 206.051 40.3506C206.153 40.6637 206.204 41.0467 206.204 41.4995V46H205.023V41.4868C205.023 41.1271 204.97 40.8394 204.864 40.6235C204.759 40.4035 204.604 40.2448 204.401 40.1475C204.198 40.0459 203.948 39.9951 203.652 39.9951C203.36 39.9951 203.093 40.0565 202.852 40.1792C202.615 40.3019 202.41 40.4712 202.236 40.687C202.067 40.9028 201.934 41.1504 201.837 41.4297C201.743 41.7048 201.697 41.9967 201.697 42.3057ZM209.388 39.1318V46H208.207V39.1318H209.388ZM208.118 37.3101C208.118 37.1196 208.175 36.9588 208.29 36.8276C208.408 36.6965 208.582 36.6309 208.81 36.6309C209.035 36.6309 209.206 36.6965 209.324 36.8276C209.447 36.9588 209.508 37.1196 209.508 37.3101C209.508 37.492 209.447 37.6486 209.324 37.7798C209.206 37.9067 209.035 37.9702 208.81 37.9702C208.582 37.9702 208.408 37.9067 208.29 37.7798C208.175 37.6486 208.118 37.492 208.118 37.3101ZM215.422 44.1782C215.422 44.009 215.384 43.8524 215.308 43.7085C215.236 43.5604 215.086 43.4271 214.857 43.3086C214.633 43.1859 214.294 43.0801 213.842 42.9912C213.461 42.9108 213.116 42.8156 212.807 42.7056C212.502 42.5955 212.242 42.4622 212.026 42.3057C211.815 42.1491 211.652 41.965 211.537 41.7534C211.423 41.5418 211.366 41.2943 211.366 41.0107C211.366 40.7399 211.425 40.4839 211.544 40.2427C211.666 40.0015 211.838 39.7878 212.058 39.6016C212.282 39.4154 212.551 39.2694 212.864 39.1636C213.177 39.0578 213.526 39.0049 213.911 39.0049C214.462 39.0049 214.931 39.1022 215.321 39.2969C215.71 39.4915 216.008 39.7518 216.216 40.0776C216.423 40.3993 216.527 40.7568 216.527 41.1504H215.352C215.352 40.96 215.295 40.7759 215.181 40.5981C215.071 40.4162 214.908 40.266 214.692 40.1475C214.481 40.029 214.22 39.9697 213.911 39.9697C213.586 39.9697 213.321 40.0205 213.118 40.1221C212.919 40.2194 212.773 40.3442 212.68 40.4966C212.591 40.6489 212.547 40.8097 212.547 40.979C212.547 41.106 212.568 41.2202 212.61 41.3218C212.657 41.4191 212.737 41.5101 212.851 41.5947C212.966 41.6751 213.126 41.7513 213.334 41.8232C213.541 41.8952 213.806 41.9671 214.127 42.0391C214.69 42.166 215.153 42.3184 215.517 42.4961C215.881 42.6738 216.152 42.8918 216.33 43.1499C216.508 43.408 216.596 43.7212 216.596 44.0894C216.596 44.3898 216.533 44.6649 216.406 44.9146C216.283 45.1642 216.103 45.38 215.867 45.562C215.634 45.7397 215.354 45.8794 215.029 45.981C214.707 46.0783 214.345 46.127 213.943 46.127C213.338 46.127 212.826 46.019 212.407 45.8032C211.988 45.5874 211.671 45.3081 211.455 44.9653C211.239 44.6226 211.131 44.2607 211.131 43.8799H212.312C212.329 44.2015 212.422 44.4575 212.591 44.6479C212.76 44.8341 212.968 44.9674 213.213 45.0479C213.459 45.124 213.702 45.1621 213.943 45.1621C214.265 45.1621 214.533 45.1198 214.749 45.0352C214.969 44.9505 215.137 44.8341 215.251 44.686C215.365 44.5379 215.422 44.3687 215.422 44.1782ZM222.939 39.1318V46H221.759V39.1318H222.939ZM221.67 37.3101C221.67 37.1196 221.727 36.9588 221.841 36.8276C221.96 36.6965 222.133 36.6309 222.362 36.6309C222.586 36.6309 222.757 36.6965 222.876 36.8276C222.999 36.9588 223.06 37.1196 223.06 37.3101C223.06 37.492 222.999 37.6486 222.876 37.7798C222.757 37.9067 222.586 37.9702 222.362 37.9702C222.133 37.9702 221.96 37.9067 221.841 37.7798C221.727 37.6486 221.67 37.492 221.67 37.3101ZM228.974 44.1782C228.974 44.009 228.936 43.8524 228.859 43.7085C228.788 43.5604 228.637 43.4271 228.409 43.3086C228.185 43.1859 227.846 43.0801 227.393 42.9912C227.012 42.9108 226.667 42.8156 226.358 42.7056C226.054 42.5955 225.794 42.4622 225.578 42.3057C225.366 42.1491 225.203 41.965 225.089 41.7534C224.975 41.5418 224.918 41.2943 224.918 41.0107C224.918 40.7399 224.977 40.4839 225.095 40.2427C225.218 40.0015 225.389 39.7878 225.609 39.6016C225.834 39.4154 226.102 39.2694 226.416 39.1636C226.729 39.0578 227.078 39.0049 227.463 39.0049C228.013 39.0049 228.483 39.1022 228.872 39.2969C229.261 39.4915 229.56 39.7518 229.767 40.0776C229.975 40.3993 230.078 40.7568 230.078 41.1504H228.904C228.904 40.96 228.847 40.7759 228.733 40.5981C228.622 40.4162 228.46 40.266 228.244 40.1475C228.032 40.029 227.772 39.9697 227.463 39.9697C227.137 39.9697 226.873 40.0205 226.67 40.1221C226.471 40.2194 226.325 40.3442 226.232 40.4966C226.143 40.6489 226.098 40.8097 226.098 40.979C226.098 41.106 226.119 41.2202 226.162 41.3218C226.208 41.4191 226.289 41.5101 226.403 41.5947C226.517 41.6751 226.678 41.7513 226.885 41.8232C227.093 41.8952 227.357 41.9671 227.679 42.0391C228.242 42.166 228.705 42.3184 229.069 42.4961C229.433 42.6738 229.704 42.8918 229.881 43.1499C230.059 43.408 230.148 43.7212 230.148 44.0894C230.148 44.3898 230.085 44.6649 229.958 44.9146C229.835 45.1642 229.655 45.38 229.418 45.562C229.185 45.7397 228.906 45.8794 228.58 45.981C228.259 46.0783 227.897 46.127 227.495 46.127C226.89 46.127 226.378 46.019 225.959 45.8032C225.54 45.5874 225.222 45.3081 225.006 44.9653C224.791 44.6226 224.683 44.2607 224.683 43.8799H225.863C225.88 44.2015 225.973 44.4575 226.143 44.6479C226.312 44.8341 226.519 44.9674 226.765 45.0479C227.01 45.124 227.254 45.1621 227.495 45.1621C227.816 45.1621 228.085 45.1198 228.301 45.0352C228.521 44.9505 228.688 44.8341 228.802 44.686C228.917 44.5379 228.974 44.3687 228.974 44.1782ZM239.265 44.8257V41.29C239.265 41.0192 239.21 40.7843 239.1 40.5854C238.994 40.3823 238.833 40.2257 238.617 40.1157C238.402 40.0057 238.135 39.9507 237.818 39.9507C237.521 39.9507 237.261 40.0015 237.037 40.103C236.817 40.2046 236.643 40.3379 236.516 40.5029C236.394 40.668 236.332 40.8457 236.332 41.0361H235.158C235.158 40.7907 235.221 40.5474 235.348 40.3062C235.475 40.0649 235.657 39.847 235.894 39.6523C236.136 39.4535 236.423 39.2969 236.758 39.1826C237.096 39.0641 237.473 39.0049 237.888 39.0049C238.387 39.0049 238.827 39.0895 239.208 39.2588C239.593 39.4281 239.893 39.6841 240.109 40.0269C240.329 40.3654 240.439 40.7907 240.439 41.3027V44.502C240.439 44.7305 240.458 44.9738 240.496 45.2319C240.539 45.4901 240.6 45.7122 240.68 45.8984V46H239.455C239.396 45.8646 239.35 45.6847 239.316 45.4604C239.282 45.2319 239.265 45.0203 239.265 44.8257ZM239.468 41.8359L239.481 42.6611H238.294C237.959 42.6611 237.661 42.6886 237.399 42.7437C237.136 42.7944 236.916 42.8727 236.739 42.9785C236.561 43.0843 236.425 43.2176 236.332 43.3784C236.239 43.535 236.193 43.7191 236.193 43.9307C236.193 44.1465 236.241 44.3433 236.339 44.521C236.436 44.6987 236.582 44.8405 236.777 44.9463C236.976 45.0479 237.219 45.0986 237.507 45.0986C237.866 45.0986 238.184 45.0225 238.459 44.8701C238.734 44.7178 238.952 44.5316 239.113 44.3115C239.278 44.0915 239.367 43.8778 239.379 43.6704L239.881 44.2354C239.851 44.4131 239.771 44.6099 239.639 44.8257C239.508 45.0415 239.333 45.2489 239.113 45.4478C238.897 45.6424 238.639 45.8053 238.338 45.9365C238.042 46.0635 237.708 46.127 237.335 46.127C236.87 46.127 236.461 46.036 236.11 45.854C235.763 45.672 235.492 45.4287 235.298 45.124C235.107 44.8151 235.012 44.4702 235.012 44.0894C235.012 43.7212 235.084 43.3975 235.228 43.1182C235.372 42.8346 235.579 42.5998 235.85 42.4136C236.121 42.2231 236.447 42.0793 236.827 41.9819C237.208 41.8846 237.634 41.8359 238.103 41.8359H239.468ZM251.74 45.0352V46H245.69V45.1558L248.718 41.7852C249.091 41.3704 249.378 41.0192 249.582 40.7314C249.789 40.4395 249.933 40.1792 250.013 39.9507C250.098 39.7179 250.14 39.481 250.14 39.2397C250.14 38.9351 250.077 38.66 249.95 38.4146C249.827 38.1649 249.645 37.966 249.404 37.8179C249.163 37.6698 248.871 37.5957 248.528 37.5957C248.117 37.5957 247.775 37.6761 247.5 37.8369C247.229 37.9935 247.026 38.2135 246.89 38.4971C246.755 38.7806 246.687 39.1064 246.687 39.4746H245.513C245.513 38.9541 245.627 38.478 245.855 38.0464C246.084 37.6147 246.423 37.272 246.871 37.0181C247.32 36.7599 247.872 36.6309 248.528 36.6309C249.112 36.6309 249.611 36.7345 250.026 36.9419C250.441 37.145 250.758 37.4328 250.978 37.8052C251.202 38.1733 251.314 38.605 251.314 39.1001C251.314 39.3709 251.268 39.646 251.175 39.9253C251.086 40.2004 250.961 40.4754 250.8 40.7505C250.644 41.0256 250.46 41.2964 250.248 41.563C250.041 41.8296 249.819 42.092 249.582 42.3501L247.106 45.0352H251.74ZM258.948 40.6426V42.0518C258.948 42.8092 258.881 43.4482 258.745 43.9688C258.61 44.4893 258.415 44.9082 258.161 45.2256C257.907 45.543 257.601 45.7736 257.241 45.9175C256.885 46.0571 256.483 46.127 256.035 46.127C255.679 46.127 255.351 46.0825 255.051 45.9937C254.75 45.9048 254.48 45.763 254.238 45.5684C254.001 45.3695 253.798 45.1113 253.629 44.7939C253.46 44.4766 253.331 44.0915 253.242 43.6387C253.153 43.1859 253.108 42.6569 253.108 42.0518V40.6426C253.108 39.8851 253.176 39.2503 253.312 38.7383C253.451 38.2262 253.648 37.8158 253.902 37.5068C254.156 37.1937 254.461 36.9694 254.816 36.834C255.176 36.6986 255.578 36.6309 256.022 36.6309C256.382 36.6309 256.712 36.6753 257.012 36.7642C257.317 36.8488 257.588 36.9863 257.825 37.1768C258.062 37.363 258.263 37.6126 258.428 37.9258C258.597 38.2347 258.726 38.6134 258.815 39.062C258.904 39.5106 258.948 40.0374 258.948 40.6426ZM257.768 42.2422V40.4458C257.768 40.0311 257.742 39.6672 257.692 39.354C257.645 39.0366 257.575 38.7658 257.482 38.5415C257.389 38.3172 257.27 38.1353 257.127 37.9956C256.987 37.856 256.824 37.7544 256.638 37.6909C256.456 37.6232 256.251 37.5894 256.022 37.5894C255.743 37.5894 255.495 37.6423 255.279 37.748C255.064 37.8496 254.882 38.0125 254.733 38.2368C254.59 38.4611 254.48 38.7552 254.403 39.1191C254.327 39.4831 254.289 39.9253 254.289 40.4458V42.2422C254.289 42.6569 254.312 43.0229 254.359 43.3403C254.41 43.6577 254.484 43.9328 254.581 44.1655C254.678 44.394 254.797 44.5824 254.937 44.7305C255.076 44.8786 255.237 44.9886 255.419 45.0605C255.605 45.1283 255.81 45.1621 256.035 45.1621C256.323 45.1621 256.574 45.1071 256.79 44.9971C257.006 44.887 257.186 44.7157 257.33 44.4829C257.478 44.2459 257.588 43.9434 257.66 43.5752C257.732 43.2028 257.768 42.7585 257.768 42.2422ZM266.855 42.8896V43.8545H260.177V43.1626L264.316 36.7578H265.275L264.246 38.6113L261.51 42.8896H266.855ZM265.567 36.7578V46H264.392V36.7578H265.567ZM273.899 43.499C273.899 44.0618 273.768 44.54 273.505 44.9336C273.247 45.3229 272.896 45.6191 272.451 45.8223C272.011 46.0254 271.514 46.127 270.96 46.127C270.405 46.127 269.906 46.0254 269.462 45.8223C269.017 45.6191 268.666 45.3229 268.408 44.9336C268.15 44.54 268.021 44.0618 268.021 43.499C268.021 43.1309 268.091 42.7944 268.23 42.4897C268.374 42.1808 268.575 41.9121 268.833 41.6836C269.096 41.4551 269.405 41.2795 269.76 41.1567C270.12 41.0298 270.515 40.9663 270.947 40.9663C271.514 40.9663 272.02 41.0763 272.464 41.2964C272.908 41.5122 273.258 41.8105 273.512 42.1914C273.77 42.5723 273.899 43.0081 273.899 43.499ZM272.718 43.4736C272.718 43.1309 272.644 42.8283 272.496 42.5659C272.348 42.2993 272.14 42.092 271.874 41.9438C271.607 41.7957 271.298 41.7217 270.947 41.7217C270.587 41.7217 270.276 41.7957 270.014 41.9438C269.756 42.092 269.555 42.2993 269.411 42.5659C269.267 42.8283 269.195 43.1309 269.195 43.4736C269.195 43.8291 269.265 44.1338 269.405 44.3877C269.548 44.6374 269.752 44.8299 270.014 44.9653C270.281 45.0965 270.596 45.1621 270.96 45.1621C271.324 45.1621 271.637 45.0965 271.899 44.9653C272.162 44.8299 272.363 44.6374 272.502 44.3877C272.646 44.1338 272.718 43.8291 272.718 43.4736ZM273.683 39.1636C273.683 39.6121 273.564 40.0163 273.327 40.376C273.09 40.7357 272.767 41.0192 272.356 41.2266C271.946 41.4339 271.48 41.5376 270.96 41.5376C270.431 41.5376 269.959 41.4339 269.544 41.2266C269.134 41.0192 268.812 40.7357 268.579 40.376C268.347 40.0163 268.23 39.6121 268.23 39.1636C268.23 38.6261 268.347 38.1691 268.579 37.7925C268.816 37.4159 269.14 37.1281 269.551 36.9292C269.961 36.7303 270.429 36.6309 270.953 36.6309C271.482 36.6309 271.952 36.7303 272.363 36.9292C272.773 37.1281 273.095 37.4159 273.327 37.7925C273.564 38.1691 273.683 38.6261 273.683 39.1636ZM272.509 39.1826C272.509 38.8737 272.443 38.6007 272.312 38.3638C272.181 38.1268 271.999 37.9406 271.766 37.8052C271.533 37.6655 271.262 37.5957 270.953 37.5957C270.644 37.5957 270.374 37.6613 270.141 37.7925C269.912 37.9194 269.733 38.1014 269.601 38.3384C269.474 38.5754 269.411 38.8568 269.411 39.1826C269.411 39.5 269.474 39.7772 269.601 40.0142C269.733 40.2511 269.915 40.4352 270.147 40.5664C270.38 40.6976 270.651 40.7632 270.96 40.7632C271.269 40.7632 271.537 40.6976 271.766 40.5664C271.999 40.4352 272.181 40.2511 272.312 40.0142C272.443 39.7772 272.509 39.5 272.509 39.1826ZM278.105 41.5884V42.5532H275.007V41.5884H278.105ZM279.397 36.25H280.578V44.667L280.477 46H279.397V36.25ZM285.218 42.5088V42.6421C285.218 43.1414 285.159 43.6048 285.041 44.0322C284.922 44.4554 284.749 44.8236 284.52 45.1367C284.292 45.4499 284.012 45.6932 283.682 45.8667C283.352 46.0402 282.973 46.127 282.546 46.127C282.11 46.127 281.727 46.0529 281.397 45.9048C281.071 45.7524 280.796 45.5345 280.572 45.251C280.347 44.9674 280.168 44.6247 280.032 44.2227C279.901 43.8206 279.81 43.3678 279.759 42.8643V42.2803C279.81 41.7725 279.901 41.3175 280.032 40.9155C280.168 40.5135 280.347 40.1707 280.572 39.8872C280.796 39.5994 281.071 39.3815 281.397 39.2334C281.723 39.0811 282.102 39.0049 282.533 39.0049C282.965 39.0049 283.348 39.0895 283.682 39.2588C284.016 39.4238 284.296 39.6608 284.52 39.9697C284.749 40.2786 284.922 40.6489 285.041 41.0806C285.159 41.508 285.218 41.984 285.218 42.5088ZM284.038 42.6421V42.5088C284.038 42.166 284.006 41.8444 283.942 41.5439C283.879 41.2393 283.777 40.9727 283.638 40.7441C283.498 40.5114 283.314 40.3294 283.085 40.1982C282.857 40.0628 282.576 39.9951 282.241 39.9951C281.945 39.9951 281.687 40.0459 281.467 40.1475C281.251 40.249 281.067 40.3866 280.915 40.5601C280.762 40.7293 280.637 40.924 280.54 41.144C280.447 41.3599 280.377 41.5841 280.331 41.8169V43.3467C280.398 43.6429 280.508 43.9285 280.661 44.2036C280.817 44.4744 281.025 44.6966 281.283 44.8701C281.545 45.0436 281.869 45.1304 282.254 45.1304C282.571 45.1304 282.842 45.0669 283.066 44.9399C283.295 44.8088 283.479 44.6289 283.619 44.4004C283.763 44.1719 283.868 43.9074 283.936 43.6069C284.004 43.3065 284.038 42.9849 284.038 42.6421ZM288.129 39.1318V46H286.949V39.1318H288.129ZM286.86 37.3101C286.86 37.1196 286.917 36.9588 287.031 36.8276C287.15 36.6965 287.323 36.6309 287.552 36.6309C287.776 36.6309 287.948 36.6965 288.066 36.8276C288.189 36.9588 288.25 37.1196 288.25 37.3101C288.25 37.492 288.189 37.6486 288.066 37.7798C287.948 37.9067 287.776 37.9702 287.552 37.9702C287.323 37.9702 287.15 37.9067 287.031 37.7798C286.917 37.6486 286.86 37.492 286.86 37.3101ZM293.04 39.1318V40.0332H289.327V39.1318H293.04ZM290.584 37.4624H291.758V44.2988C291.758 44.5316 291.794 44.7072 291.866 44.8257C291.938 44.9442 292.031 45.0225 292.145 45.0605C292.259 45.0986 292.382 45.1177 292.513 45.1177C292.611 45.1177 292.712 45.1092 292.818 45.0923C292.928 45.0711 293.011 45.0542 293.066 45.0415L293.072 46C292.979 46.0296 292.856 46.0571 292.704 46.0825C292.556 46.1121 292.376 46.127 292.164 46.127C291.877 46.127 291.612 46.0698 291.371 45.9556C291.13 45.8413 290.937 45.6509 290.793 45.3843C290.654 45.1134 290.584 44.7495 290.584 44.2925V37.4624ZM303.046 43.6641C303.046 43.4482 303.012 43.2578 302.944 43.0928C302.881 42.9235 302.767 42.7712 302.601 42.6357C302.441 42.5003 302.216 42.3713 301.929 42.2485C301.645 42.1258 301.285 42.001 300.85 41.874C300.392 41.7386 299.98 41.5884 299.612 41.4233C299.244 41.2541 298.928 41.0615 298.666 40.8457C298.404 40.6299 298.203 40.3823 298.063 40.103C297.923 39.8237 297.853 39.5042 297.853 39.1445C297.853 38.7848 297.927 38.4526 298.076 38.1479C298.224 37.8433 298.435 37.5788 298.71 37.3545C298.99 37.126 299.322 36.9482 299.707 36.8213C300.092 36.6943 300.522 36.6309 300.996 36.6309C301.69 36.6309 302.278 36.7642 302.76 37.0308C303.247 37.2931 303.617 37.638 303.871 38.0654C304.125 38.4886 304.252 38.9414 304.252 39.4238H303.033C303.033 39.0768 302.959 38.77 302.811 38.5034C302.663 38.2326 302.439 38.021 302.138 37.8687C301.838 37.7121 301.457 37.6338 300.996 37.6338C300.56 37.6338 300.2 37.6994 299.916 37.8306C299.633 37.9618 299.421 38.1395 299.282 38.3638C299.146 38.5881 299.079 38.8441 299.079 39.1318C299.079 39.3265 299.119 39.5042 299.199 39.665C299.284 39.8216 299.413 39.9676 299.586 40.103C299.764 40.2384 299.988 40.3633 300.259 40.4775C300.534 40.5918 300.862 40.7018 301.243 40.8076C301.768 40.9557 302.221 41.1208 302.601 41.3027C302.982 41.4847 303.295 41.6899 303.541 41.9185C303.791 42.1427 303.975 42.3988 304.093 42.6865C304.216 42.9701 304.277 43.2917 304.277 43.6514C304.277 44.028 304.201 44.3687 304.049 44.6733C303.896 44.978 303.678 45.2383 303.395 45.4541C303.111 45.6699 302.771 45.8371 302.373 45.9556C301.979 46.0698 301.539 46.127 301.053 46.127C300.625 46.127 300.204 46.0677 299.789 45.9492C299.379 45.8307 299.004 45.653 298.666 45.416C298.332 45.179 298.063 44.887 297.86 44.54C297.661 44.1888 297.561 43.7826 297.561 43.3213H298.78C298.78 43.6387 298.842 43.9116 298.964 44.1401C299.087 44.3644 299.254 44.5506 299.466 44.6987C299.682 44.8468 299.925 44.9569 300.196 45.0288C300.471 45.0965 300.756 45.1304 301.053 45.1304C301.48 45.1304 301.842 45.0711 302.138 44.9526C302.434 44.8341 302.659 44.6649 302.811 44.4448C302.968 44.2248 303.046 43.9645 303.046 43.6641ZM310.915 43.6641C310.915 43.4482 310.881 43.2578 310.813 43.0928C310.75 42.9235 310.635 42.7712 310.47 42.6357C310.309 42.5003 310.085 42.3713 309.797 42.2485C309.514 42.1258 309.154 42.001 308.718 41.874C308.261 41.7386 307.849 41.5884 307.48 41.4233C307.112 41.2541 306.797 41.0615 306.535 40.8457C306.272 40.6299 306.071 40.3823 305.932 40.103C305.792 39.8237 305.722 39.5042 305.722 39.1445C305.722 38.7848 305.796 38.4526 305.944 38.1479C306.092 37.8433 306.304 37.5788 306.579 37.3545C306.858 37.126 307.191 36.9482 307.576 36.8213C307.961 36.6943 308.39 36.6309 308.864 36.6309C309.558 36.6309 310.146 36.7642 310.629 37.0308C311.116 37.2931 311.486 37.638 311.74 38.0654C311.994 38.4886 312.121 38.9414 312.121 39.4238H310.902C310.902 39.0768 310.828 38.77 310.68 38.5034C310.532 38.2326 310.307 38.021 310.007 37.8687C309.706 37.7121 309.326 37.6338 308.864 37.6338C308.428 37.6338 308.069 37.6994 307.785 37.8306C307.502 37.9618 307.29 38.1395 307.15 38.3638C307.015 38.5881 306.947 38.8441 306.947 39.1318C306.947 39.3265 306.987 39.5042 307.068 39.665C307.153 39.8216 307.282 39.9676 307.455 40.103C307.633 40.2384 307.857 40.3633 308.128 40.4775C308.403 40.5918 308.731 40.7018 309.112 40.8076C309.637 40.9557 310.089 41.1208 310.47 41.3027C310.851 41.4847 311.164 41.6899 311.41 41.9185C311.659 42.1427 311.843 42.3988 311.962 42.6865C312.085 42.9701 312.146 43.2917 312.146 43.6514C312.146 44.028 312.07 44.3687 311.917 44.6733C311.765 44.978 311.547 45.2383 311.264 45.4541C310.98 45.6699 310.639 45.8371 310.242 45.9556C309.848 46.0698 309.408 46.127 308.921 46.127C308.494 46.127 308.073 46.0677 307.658 45.9492C307.248 45.8307 306.873 45.653 306.535 45.416C306.2 45.179 305.932 44.887 305.729 44.54C305.53 44.1888 305.43 43.7826 305.43 43.3213H306.649C306.649 43.6387 306.71 43.9116 306.833 44.1401C306.956 44.3644 307.123 44.5506 307.334 44.6987C307.55 44.8468 307.794 44.9569 308.064 45.0288C308.34 45.0965 308.625 45.1304 308.921 45.1304C309.349 45.1304 309.711 45.0711 310.007 44.9526C310.303 44.8341 310.527 44.6649 310.68 44.4448C310.836 44.2248 310.915 43.9645 310.915 43.6641ZM319.463 45.0034V46H314.841V45.0034H319.463ZM315.083 36.7578V46H313.858V36.7578H315.083ZM330.262 45.0034V46H325.367V45.0034H330.262ZM325.615 36.7578V46H324.39V36.7578H325.615ZM329.614 40.7314V41.728H325.367V40.7314H329.614ZM330.198 36.7578V37.7607H325.367V36.7578H330.198ZM332.925 40.5981V46H331.751V39.1318H332.862L332.925 40.5981ZM332.646 42.3057L332.157 42.2866C332.161 41.8169 332.231 41.3831 332.367 40.9854C332.502 40.5833 332.692 40.2342 332.938 39.938C333.183 39.6418 333.475 39.4132 333.814 39.2524C334.157 39.0874 334.535 39.0049 334.95 39.0049C335.289 39.0049 335.593 39.0514 335.864 39.1445C336.135 39.2334 336.366 39.3773 336.556 39.5762C336.751 39.7751 336.899 40.0332 337 40.3506C337.102 40.6637 337.153 41.0467 337.153 41.4995V46H335.972V41.4868C335.972 41.1271 335.919 40.8394 335.813 40.6235C335.708 40.4035 335.553 40.2448 335.35 40.1475C335.147 40.0459 334.897 39.9951 334.601 39.9951C334.309 39.9951 334.042 40.0565 333.801 40.1792C333.564 40.3019 333.359 40.4712 333.185 40.687C333.016 40.9028 332.883 41.1504 332.786 41.4297C332.692 41.7048 332.646 41.9967 332.646 42.3057ZM341.835 45.1621C342.114 45.1621 342.372 45.105 342.609 44.9907C342.846 44.8765 343.041 44.7199 343.193 44.521C343.346 44.3179 343.432 44.0872 343.454 43.8291H344.571C344.55 44.2354 344.412 44.6141 344.158 44.9653C343.909 45.3123 343.581 45.5938 343.174 45.8096C342.768 46.0212 342.322 46.127 341.835 46.127C341.319 46.127 340.868 46.036 340.483 45.854C340.102 45.672 339.785 45.4224 339.531 45.105C339.281 44.7876 339.093 44.4237 338.966 44.0132C338.843 43.5985 338.782 43.1605 338.782 42.6992V42.4326C338.782 41.9714 338.843 41.5355 338.966 41.125C339.093 40.7103 339.281 40.3442 339.531 40.0269C339.785 39.7095 340.102 39.4598 340.483 39.2778C340.868 39.0959 341.319 39.0049 341.835 39.0049C342.372 39.0049 342.842 39.1149 343.244 39.335C343.646 39.5508 343.961 39.847 344.19 40.2236C344.423 40.596 344.55 41.0192 344.571 41.4932H343.454C343.432 41.2096 343.352 40.9536 343.212 40.7251C343.077 40.4966 342.891 40.3146 342.654 40.1792C342.421 40.0396 342.148 39.9697 341.835 39.9697C341.475 39.9697 341.173 40.0417 340.927 40.1855C340.686 40.3252 340.493 40.5156 340.35 40.7568C340.21 40.9938 340.108 41.2583 340.045 41.5503C339.986 41.8381 339.956 42.1322 339.956 42.4326V42.6992C339.956 42.9997 339.986 43.2959 340.045 43.5879C340.104 43.8799 340.204 44.1444 340.343 44.3813C340.487 44.6183 340.68 44.8088 340.921 44.9526C341.166 45.0923 341.471 45.1621 341.835 45.1621ZM347.215 40.2109V46H346.041V39.1318H347.184L347.215 40.2109ZM349.361 39.0938L349.355 40.1855C349.257 40.1644 349.164 40.1517 349.075 40.1475C348.991 40.139 348.893 40.1348 348.783 40.1348C348.512 40.1348 348.273 40.1771 348.066 40.2617C347.859 40.3464 347.683 40.4648 347.539 40.6172C347.395 40.7695 347.281 40.9515 347.196 41.1631C347.116 41.3704 347.063 41.599 347.038 41.8486L346.708 42.0391C346.708 41.6243 346.748 41.235 346.828 40.8711C346.913 40.5072 347.042 40.1855 347.215 39.9062C347.389 39.6227 347.609 39.4027 347.876 39.2461C348.146 39.0853 348.468 39.0049 348.84 39.0049C348.925 39.0049 349.022 39.0155 349.132 39.0366C349.242 39.0535 349.319 39.0726 349.361 39.0938ZM352.64 45.2891L354.551 39.1318H355.808L353.053 47.0601C352.989 47.2293 352.905 47.4113 352.799 47.606C352.697 47.8049 352.566 47.9932 352.405 48.1709C352.245 48.3486 352.05 48.4925 351.821 48.6025C351.597 48.7168 351.328 48.7739 351.015 48.7739C350.922 48.7739 350.804 48.7612 350.66 48.7358C350.516 48.7104 350.414 48.6893 350.355 48.6724L350.349 47.7202C350.383 47.7244 350.436 47.7287 350.508 47.7329C350.584 47.7414 350.637 47.7456 350.666 47.7456C350.933 47.7456 351.159 47.7096 351.345 47.6377C351.532 47.57 351.688 47.4536 351.815 47.2886C351.946 47.1278 352.058 46.9056 352.152 46.6221L352.64 45.2891ZM351.238 39.1318L353.021 44.4639L353.326 45.7017L352.482 46.1333L349.955 39.1318H351.238ZM358.192 40.4521V48.6406H357.012V39.1318H358.091L358.192 40.4521ZM362.82 42.5088V42.6421C362.82 43.1414 362.76 43.6048 362.642 44.0322C362.523 44.4554 362.35 44.8236 362.121 45.1367C361.897 45.4499 361.62 45.6932 361.29 45.8667C360.96 46.0402 360.581 46.127 360.154 46.127C359.718 46.127 359.333 46.055 358.998 45.9111C358.664 45.7673 358.38 45.5578 358.148 45.2827C357.915 45.0076 357.729 44.6776 357.589 44.2925C357.454 43.9074 357.361 43.4736 357.31 42.9912V42.2803C357.361 41.7725 357.456 41.3175 357.596 40.9155C357.735 40.5135 357.919 40.1707 358.148 39.8872C358.38 39.5994 358.662 39.3815 358.992 39.2334C359.322 39.0811 359.703 39.0049 360.135 39.0049C360.566 39.0049 360.949 39.0895 361.283 39.2588C361.618 39.4238 361.899 39.6608 362.128 39.9697C362.356 40.2786 362.528 40.6489 362.642 41.0806C362.76 41.508 362.82 41.984 362.82 42.5088ZM361.639 42.6421V42.5088C361.639 42.166 361.603 41.8444 361.531 41.5439C361.459 41.2393 361.347 40.9727 361.195 40.7441C361.047 40.5114 360.856 40.3294 360.623 40.1982C360.391 40.0628 360.113 39.9951 359.792 39.9951C359.496 39.9951 359.237 40.0459 359.017 40.1475C358.802 40.249 358.617 40.3866 358.465 40.5601C358.313 40.7293 358.188 40.924 358.091 41.144C357.998 41.3599 357.928 41.5841 357.881 41.8169V43.4609C357.966 43.7572 358.084 44.0365 358.237 44.2988C358.389 44.557 358.592 44.7664 358.846 44.9272C359.1 45.0838 359.419 45.1621 359.804 45.1621C360.122 45.1621 360.395 45.0965 360.623 44.9653C360.856 44.8299 361.047 44.6458 361.195 44.4131C361.347 44.1803 361.459 43.9137 361.531 43.6133C361.603 43.3086 361.639 42.9849 361.639 42.6421ZM367.343 39.1318V40.0332H363.63V39.1318H367.343ZM364.887 37.4624H366.061V44.2988C366.061 44.5316 366.097 44.7072 366.169 44.8257C366.241 44.9442 366.334 45.0225 366.448 45.0605C366.562 45.0986 366.685 45.1177 366.816 45.1177C366.914 45.1177 367.015 45.1092 367.121 45.0923C367.231 45.0711 367.314 45.0542 367.369 45.0415L367.375 46C367.282 46.0296 367.159 46.0571 367.007 46.0825C366.859 46.1121 366.679 46.127 366.467 46.127C366.179 46.127 365.915 46.0698 365.674 45.9556C365.433 45.8413 365.24 45.6509 365.096 45.3843C364.956 45.1134 364.887 44.7495 364.887 44.2925V37.4624ZM371.721 46.127C371.243 46.127 370.809 46.0465 370.419 45.8857C370.034 45.7207 369.702 45.4901 369.423 45.1938C369.148 44.8976 368.936 44.5464 368.788 44.1401C368.64 43.7339 368.566 43.2896 368.566 42.8071V42.5405C368.566 41.9819 368.648 41.4847 368.813 41.0488C368.979 40.6087 369.203 40.2363 369.486 39.9316C369.77 39.627 370.091 39.3963 370.451 39.2397C370.811 39.0832 371.183 39.0049 371.568 39.0049C372.059 39.0049 372.482 39.0895 372.838 39.2588C373.198 39.4281 373.492 39.665 373.72 39.9697C373.949 40.2702 374.118 40.6257 374.228 41.0361C374.338 41.4424 374.393 41.8867 374.393 42.3691V42.896H369.264V41.9375H373.219V41.8486C373.202 41.5439 373.138 41.2477 373.028 40.96C372.923 40.6722 372.753 40.4352 372.521 40.249C372.288 40.0628 371.97 39.9697 371.568 39.9697C371.302 39.9697 371.056 40.0269 370.832 40.1411C370.608 40.2511 370.415 40.4162 370.254 40.6362C370.094 40.8563 369.969 41.125 369.88 41.4424C369.791 41.7598 369.747 42.1258 369.747 42.5405V42.8071C369.747 43.133 369.791 43.4398 369.88 43.7275C369.973 44.0111 370.106 44.2607 370.28 44.4766C370.458 44.6924 370.671 44.8617 370.921 44.9844C371.175 45.1071 371.463 45.1685 371.784 45.1685C372.199 45.1685 372.55 45.0838 372.838 44.9146C373.126 44.7453 373.377 44.5189 373.593 44.2354L374.304 44.8003C374.156 45.0246 373.968 45.2383 373.739 45.4414C373.511 45.6445 373.229 45.8096 372.895 45.9365C372.565 46.0635 372.174 46.127 371.721 46.127ZM380.243 44.667V36.25H381.424V46H380.345L380.243 44.667ZM375.622 42.6421V42.5088C375.622 41.984 375.686 41.508 375.813 41.0806C375.944 40.6489 376.128 40.2786 376.365 39.9697C376.606 39.6608 376.892 39.4238 377.222 39.2588C377.556 39.0895 377.928 39.0049 378.339 39.0049C378.771 39.0049 379.147 39.0811 379.469 39.2334C379.795 39.3815 380.07 39.5994 380.294 39.8872C380.523 40.1707 380.702 40.5135 380.834 40.9155C380.965 41.3175 381.056 41.7725 381.107 42.2803V42.8643C381.06 43.3678 380.969 43.8206 380.834 44.2227C380.702 44.6247 380.523 44.9674 380.294 45.251C380.07 45.5345 379.795 45.7524 379.469 45.9048C379.143 46.0529 378.762 46.127 378.326 46.127C377.924 46.127 377.556 46.0402 377.222 45.8667C376.892 45.6932 376.606 45.4499 376.365 45.1367C376.128 44.8236 375.944 44.4554 375.813 44.0322C375.686 43.6048 375.622 43.1414 375.622 42.6421ZM376.803 42.5088V42.6421C376.803 42.9849 376.837 43.3065 376.904 43.6069C376.976 43.9074 377.086 44.1719 377.234 44.4004C377.383 44.6289 377.571 44.8088 377.799 44.9399C378.028 45.0669 378.301 45.1304 378.618 45.1304C379.008 45.1304 379.327 45.0479 379.577 44.8828C379.831 44.7178 380.034 44.4998 380.186 44.229C380.338 43.9582 380.457 43.6641 380.542 43.3467V41.8169C380.491 41.5841 380.417 41.3599 380.319 41.144C380.226 40.924 380.104 40.7293 379.951 40.5601C379.803 40.3866 379.619 40.249 379.399 40.1475C379.183 40.0459 378.927 39.9951 378.631 39.9951C378.309 39.9951 378.032 40.0628 377.799 40.1982C377.571 40.3294 377.383 40.5114 377.234 40.7441C377.086 40.9727 376.976 41.2393 376.904 41.5439C376.837 41.8444 376.803 42.166 376.803 42.5088ZM390.363 42.3755H387.894V41.3789H390.363C390.841 41.3789 391.228 41.3027 391.525 41.1504C391.821 40.998 392.037 40.7865 392.172 40.5156C392.312 40.2448 392.382 39.9359 392.382 39.5889C392.382 39.2715 392.312 38.9731 392.172 38.6938C392.037 38.4146 391.821 38.1903 391.525 38.021C391.228 37.8475 390.841 37.7607 390.363 37.7607H388.179V46H386.954V36.7578H390.363C391.061 36.7578 391.652 36.8784 392.134 37.1196C392.617 37.3608 392.983 37.6951 393.232 38.1226C393.482 38.5457 393.607 39.0303 393.607 39.5762C393.607 40.1686 393.482 40.6743 393.232 41.0933C392.983 41.5122 392.617 41.8317 392.134 42.0518C391.652 42.2676 391.061 42.3755 390.363 42.3755ZM399.101 44.8257V41.29C399.101 41.0192 399.046 40.7843 398.936 40.5854C398.831 40.3823 398.67 40.2257 398.454 40.1157C398.238 40.0057 397.972 39.9507 397.654 39.9507C397.358 39.9507 397.098 40.0015 396.873 40.103C396.653 40.2046 396.48 40.3379 396.353 40.5029C396.23 40.668 396.169 40.8457 396.169 41.0361H394.995C394.995 40.7907 395.058 40.5474 395.185 40.3062C395.312 40.0649 395.494 39.847 395.731 39.6523C395.972 39.4535 396.26 39.2969 396.594 39.1826C396.933 39.0641 397.309 39.0049 397.724 39.0049C398.223 39.0049 398.663 39.0895 399.044 39.2588C399.429 39.4281 399.73 39.6841 399.946 40.0269C400.166 40.3654 400.276 40.7907 400.276 41.3027V44.502C400.276 44.7305 400.295 44.9738 400.333 45.2319C400.375 45.4901 400.437 45.7122 400.517 45.8984V46H399.292C399.233 45.8646 399.186 45.6847 399.152 45.4604C399.118 45.2319 399.101 45.0203 399.101 44.8257ZM399.305 41.8359L399.317 42.6611H398.13C397.796 42.6611 397.498 42.6886 397.235 42.7437C396.973 42.7944 396.753 42.8727 396.575 42.9785C396.397 43.0843 396.262 43.2176 396.169 43.3784C396.076 43.535 396.029 43.7191 396.029 43.9307C396.029 44.1465 396.078 44.3433 396.175 44.521C396.273 44.6987 396.419 44.8405 396.613 44.9463C396.812 45.0479 397.055 45.0986 397.343 45.0986C397.703 45.0986 398.02 45.0225 398.295 44.8701C398.57 44.7178 398.788 44.5316 398.949 44.3115C399.114 44.0915 399.203 43.8778 399.216 43.6704L399.717 44.2354C399.688 44.4131 399.607 44.6099 399.476 44.8257C399.345 45.0415 399.169 45.2489 398.949 45.4478C398.733 45.6424 398.475 45.8053 398.175 45.9365C397.878 46.0635 397.544 46.127 397.172 46.127C396.706 46.127 396.298 46.036 395.947 45.854C395.6 45.672 395.329 45.4287 395.134 45.124C394.944 44.8151 394.849 44.4702 394.849 44.0894C394.849 43.7212 394.92 43.3975 395.064 43.1182C395.208 42.8346 395.416 42.5998 395.686 42.4136C395.957 42.2231 396.283 42.0793 396.664 41.9819C397.045 41.8846 397.47 41.8359 397.94 41.8359H399.305ZM404.101 45.2891L406.012 39.1318H407.269L404.514 47.0601C404.45 47.2293 404.366 47.4113 404.26 47.606C404.158 47.8049 404.027 47.9932 403.866 48.1709C403.705 48.3486 403.511 48.4925 403.282 48.6025C403.058 48.7168 402.789 48.7739 402.476 48.7739C402.383 48.7739 402.264 48.7612 402.121 48.7358C401.977 48.7104 401.875 48.6893 401.816 48.6724L401.81 47.7202C401.843 47.7244 401.896 47.7287 401.968 47.7329C402.044 47.7414 402.097 47.7456 402.127 47.7456C402.394 47.7456 402.62 47.7096 402.806 47.6377C402.992 47.57 403.149 47.4536 403.276 47.2886C403.407 47.1278 403.519 46.9056 403.612 46.6221L404.101 45.2891ZM402.698 39.1318L404.482 44.4639L404.787 45.7017L403.942 46.1333L401.416 39.1318H402.698ZM409.647 40.4966V46H408.466V39.1318H409.583L409.647 40.4966ZM409.405 42.3057L408.859 42.2866C408.864 41.8169 408.925 41.3831 409.044 40.9854C409.162 40.5833 409.338 40.2342 409.57 39.938C409.803 39.6418 410.093 39.4132 410.44 39.2524C410.787 39.0874 411.189 39.0049 411.646 39.0049C411.968 39.0049 412.264 39.0514 412.535 39.1445C412.806 39.2334 413.04 39.3752 413.239 39.5698C413.438 39.7645 413.593 40.0142 413.703 40.3188C413.813 40.6235 413.868 40.9917 413.868 41.4233V46H412.693V41.4805C412.693 41.1208 412.632 40.833 412.509 40.6172C412.391 40.4014 412.222 40.2448 412.002 40.1475C411.782 40.0459 411.523 39.9951 411.227 39.9951C410.88 39.9951 410.59 40.0565 410.358 40.1792C410.125 40.3019 409.939 40.4712 409.799 40.687C409.659 40.9028 409.558 41.1504 409.494 41.4297C409.435 41.7048 409.405 41.9967 409.405 42.3057ZM413.855 41.6582L413.068 41.8994C413.072 41.5228 413.134 41.161 413.252 40.814C413.375 40.467 413.55 40.158 413.779 39.8872C414.012 39.6164 414.297 39.4027 414.636 39.2461C414.974 39.0853 415.362 39.0049 415.797 39.0049C416.166 39.0049 416.491 39.0535 416.775 39.1509C417.063 39.2482 417.304 39.3984 417.499 39.6016C417.698 39.8005 417.848 40.0565 417.949 40.3696C418.051 40.6828 418.102 41.0552 418.102 41.4868V46H416.921V41.4741C416.921 41.089 416.86 40.7907 416.737 40.5791C416.618 40.3633 416.449 40.2131 416.229 40.1284C416.013 40.0396 415.755 39.9951 415.455 39.9951C415.197 39.9951 414.968 40.0396 414.769 40.1284C414.57 40.2173 414.403 40.34 414.268 40.4966C414.132 40.6489 414.029 40.8245 413.957 41.0234C413.889 41.2223 413.855 41.4339 413.855 41.6582ZM422.879 46.127C422.401 46.127 421.967 46.0465 421.578 45.8857C421.193 45.7207 420.861 45.4901 420.581 45.1938C420.306 44.8976 420.095 44.5464 419.946 44.1401C419.798 43.7339 419.724 43.2896 419.724 42.8071V42.5405C419.724 41.9819 419.807 41.4847 419.972 41.0488C420.137 40.6087 420.361 40.2363 420.645 39.9316C420.928 39.627 421.25 39.3963 421.61 39.2397C421.969 39.0832 422.342 39.0049 422.727 39.0049C423.218 39.0049 423.641 39.0895 423.996 39.2588C424.356 39.4281 424.65 39.665 424.879 39.9697C425.107 40.2702 425.276 40.6257 425.386 41.0361C425.496 41.4424 425.551 41.8867 425.551 42.3691V42.896H420.423V41.9375H424.377V41.8486C424.36 41.5439 424.297 41.2477 424.187 40.96C424.081 40.6722 423.912 40.4352 423.679 40.249C423.446 40.0628 423.129 39.9697 422.727 39.9697C422.46 39.9697 422.215 40.0269 421.99 40.1411C421.766 40.2511 421.574 40.4162 421.413 40.6362C421.252 40.8563 421.127 41.125 421.038 41.4424C420.949 41.7598 420.905 42.1258 420.905 42.5405V42.8071C420.905 43.133 420.949 43.4398 421.038 43.7275C421.131 44.0111 421.265 44.2607 421.438 44.4766C421.616 44.6924 421.83 44.8617 422.079 44.9844C422.333 45.1071 422.621 45.1685 422.943 45.1685C423.357 45.1685 423.709 45.0838 423.996 44.9146C424.284 44.7453 424.536 44.5189 424.752 44.2354L425.463 44.8003C425.314 45.0246 425.126 45.2383 424.898 45.4414C424.669 45.6445 424.388 45.8096 424.053 45.9365C423.723 46.0635 423.332 46.127 422.879 46.127ZM428.247 40.5981V46H427.073V39.1318H428.183L428.247 40.5981ZM427.968 42.3057L427.479 42.2866C427.483 41.8169 427.553 41.3831 427.688 40.9854C427.824 40.5833 428.014 40.2342 428.26 39.938C428.505 39.6418 428.797 39.4132 429.136 39.2524C429.478 39.0874 429.857 39.0049 430.272 39.0049C430.61 39.0049 430.915 39.0514 431.186 39.1445C431.457 39.2334 431.687 39.3773 431.878 39.5762C432.072 39.7751 432.221 40.0332 432.322 40.3506C432.424 40.6637 432.474 41.0467 432.474 41.4995V46H431.294V41.4868C431.294 41.1271 431.241 40.8394 431.135 40.6235C431.029 40.4035 430.875 40.2448 430.672 40.1475C430.469 40.0459 430.219 39.9951 429.923 39.9951C429.631 39.9951 429.364 40.0565 429.123 40.1792C428.886 40.3019 428.681 40.4712 428.507 40.687C428.338 40.9028 428.205 41.1504 428.107 41.4297C428.014 41.7048 427.968 41.9967 427.968 42.3057ZM437.284 39.1318V40.0332H433.57V39.1318H437.284ZM434.827 37.4624H436.001V44.2988C436.001 44.5316 436.037 44.7072 436.109 44.8257C436.181 44.9442 436.274 45.0225 436.389 45.0605C436.503 45.0986 436.626 45.1177 436.757 45.1177C436.854 45.1177 436.956 45.1092 437.061 45.0923C437.171 45.0711 437.254 45.0542 437.309 45.0415L437.315 46C437.222 46.0296 437.1 46.0571 436.947 46.0825C436.799 46.1121 436.619 46.127 436.408 46.127C436.12 46.127 435.855 46.0698 435.614 45.9556C435.373 45.8413 435.18 45.6509 435.037 45.3843C434.897 45.1134 434.827 44.7495 434.827 44.2925V37.4624Z" fill="#424242"/>
<defs>
<linearGradient id="paint0_linear_10882_6117" x1="81.344" y1="30.5211" x2="145.126" y2="30.5211" gradientUnits="userSpaceOnUse">
<stop stop-color="#007940"/>
<stop offset="0.2285" stop-color="#00873F"/>
<stop offset="0.7433" stop-color="#40A737"/>
<stop offset="1" stop-color="#5CB531"/>
</linearGradient>
<linearGradient id="paint1_linear_10882_6117" x1="94.0402" y1="30.4932" x2="116.06" y2="30.4932" gradientUnits="userSpaceOnUse">
<stop stop-color="#007940"/>
<stop offset="0.2285" stop-color="#00873F"/>
<stop offset="0.7433" stop-color="#40A737"/>
<stop offset="1" stop-color="#5CB531"/>
</linearGradient>
<linearGradient id="paint2_linear_10882_6117" x1="80.1837" y1="30.4758" x2="149.808" y2="30.4758" gradientUnits="userSpaceOnUse">
<stop stop-color="#007940"/>
<stop offset="0.2285" stop-color="#00873F"/>
<stop offset="0.7433" stop-color="#40A737"/>
<stop offset="1" stop-color="#5CB531"/>
</linearGradient>
<linearGradient id="paint3_linear_10882_6117" x1="94.0386" y1="30.501" x2="116.398" y2="30.501" gradientUnits="userSpaceOnUse">
<stop stop-color="#1F286F"/>
<stop offset="0.4751" stop-color="#004E94"/>
<stop offset="0.8261" stop-color="#0066B1"/>
<stop offset="1" stop-color="#006FBC"/>
</linearGradient>
<linearGradient id="paint4_linear_10882_6117" x1="101.953" y1="30.5009" x2="107.913" y2="30.5009" gradientUnits="userSpaceOnUse">
<stop stop-color="#6C2C2F"/>
<stop offset="0.1735" stop-color="#882730"/>
<stop offset="0.5731" stop-color="#BE1833"/>
<stop offset="0.8585" stop-color="#DC0436"/>
<stop offset="1" stop-color="#E60039"/>
</linearGradient>
<clipPath id="clip0_10882_6117">
<rect x="12" y="13" width="37" height="36" rx="8" fill="white"/>
</clipPath>
<clipPath id="clip1_10882_6117">
<rect x="49" y="13" width="37" height="36" rx="8" fill="white"/>
</clipPath>
<clipPath id="clip2_10882_6117">
<rect width="19" height="19" fill="white" transform="translate(59 21)"/>
</clipPath>
<clipPath id="clip3_10882_6117">
<rect x="86" y="13" width="37" height="36" rx="8" fill="white"/>
</clipPath>
<clipPath id="clip4_10882_6117">
<rect x="123" y="13" width="37" height="36" rx="8" fill="white"/>
</clipPath>
</defs>
</svg>
