<svg width="39" height="39" viewBox="0 0 39 39" fill="none" xmlns="http://www.w3.org/2000/svg">
<rect x="0.652344" y="0.5" width="38" height="38" rx="19" fill="#F5F5F5"/>
<path d="M18.8191 27.417V26.5352C19.0924 26.5672 19.3705 26.5837 19.6524 26.5837C23.5644 26.5837 26.7357 23.4123 26.7357 19.5003C26.7357 15.5883 23.5644 12.417 19.6524 12.417C15.9952 12.417 12.9854 15.1886 12.6088 18.7459C11.9942 19.1597 11.5457 19.8013 11.3845 20.5497C11.3413 20.206 11.3191 19.8557 11.3191 19.5003C11.3191 14.898 15.05 11.167 19.6524 11.167C24.2547 11.167 27.9857 14.898 27.9857 19.5003C27.9857 24.1027 24.2547 27.8337 19.6524 27.8337C19.3598 27.8337 19.0707 27.8186 18.7859 27.7892C18.8077 27.6684 18.8191 27.544 18.8191 27.417ZM19.6466 15.0406C19.6053 14.7356 19.3436 14.5003 19.0274 14.5003C18.6824 14.5003 18.4024 14.7803 18.4024 15.1253V20.1253L18.4081 20.2101C18.4495 20.5151 18.7111 20.7503 19.0274 20.7503H22.3607L22.4455 20.7446C22.7505 20.7032 22.9857 20.4416 22.9857 20.1253C22.9857 19.7803 22.7057 19.5003 22.3607 19.5003H19.6524V15.1253L19.6466 15.0406ZM12.1524 22.0003V21.167C12.1524 20.0164 13.0851 19.0837 14.2357 19.0837C15.3863 19.0837 16.3191 20.0164 16.3191 21.167V22.0003H16.7357C17.4261 22.0003 17.9857 22.56 17.9857 23.2503V27.417C17.9857 28.1073 17.4261 28.667 16.7357 28.667H11.7357C11.0454 28.667 10.4857 28.1073 10.4857 27.417V23.2503C10.4857 22.56 11.0454 22.0003 11.7357 22.0003H12.1524ZM13.4024 21.167V22.0003H15.0691V21.167C15.0691 20.7067 14.696 20.3337 14.2357 20.3337C13.7755 20.3337 13.4024 20.7067 13.4024 21.167ZM15.0691 25.3337C15.0691 24.8734 14.696 24.5003 14.2357 24.5003C13.7755 24.5003 13.4024 24.8734 13.4024 25.3337C13.4024 25.7939 13.7755 26.167 14.2357 26.167C14.696 26.167 15.0691 25.7939 15.0691 25.3337Z" fill="#212121"/>
</svg>
