<svg width="39" height="39" viewBox="0 0 39 39" fill="none" xmlns="http://www.w3.org/2000/svg">
<rect x="0.652344" y="0.5" width="38" height="38" rx="19" fill="#F5F5F5"/>
<path d="M19.6523 9.5C25.1751 9.5 29.6523 13.9771 29.6523 19.5C29.6523 25.0228 25.1751 29.5 19.6523 29.5C14.1295 29.5 9.65234 25.0228 9.65234 19.5C9.65234 13.9771 14.1295 9.5 19.6523 9.5ZM26.1696 14.0431L14.1954 26.0173C15.6719 27.2549 17.5751 28 19.6523 28C24.3467 28 28.1523 24.1944 28.1523 19.5C28.1523 17.4228 27.4072 15.5195 26.1696 14.0431ZM19.6523 11C14.9579 11 11.1523 14.8056 11.1523 19.5C11.1523 21.5772 11.8975 23.4804 13.135 24.9569L25.1092 12.9827C23.6327 11.7451 21.7295 11 19.6523 11Z" fill="#212121"/>
</svg>
