<svg width="39" height="39" viewBox="0 0 39 39" fill="none" xmlns="http://www.w3.org/2000/svg">
<rect x="0.652344" y="0.5" width="38" height="38" rx="19" fill="#F5F5F5"/>
<path d="M16.319 14.083C15.1684 14.083 14.2356 15.0157 14.2356 16.1663C14.2356 17.3169 15.1684 18.2497 16.319 18.2497C17.4696 18.2497 18.4023 17.3169 18.4023 16.1663C18.4023 15.0157 17.4696 14.083 16.319 14.083ZM12.9856 16.1663C12.9856 14.3254 14.478 12.833 16.319 12.833C18.1599 12.833 19.6523 14.3254 19.6523 16.1663C19.6523 18.0073 18.1599 19.4997 16.319 19.4997C14.478 19.4997 12.9856 18.0073 12.9856 16.1663ZM23.819 15.7497C23.1286 15.7497 22.569 16.3093 22.569 16.9997C22.569 17.69 23.1286 18.2497 23.819 18.2497C24.5093 18.2497 25.069 17.69 25.069 16.9997C25.069 16.3093 24.5093 15.7497 23.819 15.7497ZM21.319 16.9997C21.319 15.619 22.4382 14.4997 23.819 14.4997C25.1997 14.4997 26.319 15.619 26.319 16.9997C26.319 18.3804 25.1997 19.4997 23.819 19.4997C22.4382 19.4997 21.319 18.3804 21.319 16.9997ZM11.319 23.0413C11.319 22.0058 12.1584 21.1663 13.194 21.1663H19.444C20.4795 21.1663 21.319 22.0058 21.319 23.0413V23.1297L20.0616 24.387C19.6681 24.7806 19.3889 25.2737 19.2539 25.8137L19.0916 26.4627C18.39 26.7912 17.4833 26.9997 16.319 26.9997C13.9621 26.9997 12.6612 26.1454 11.9788 25.1706C11.6494 24.7 11.4856 24.231 11.4037 23.88C11.3626 23.7038 11.3415 23.5548 11.3306 23.4462C11.3252 23.3918 11.3223 23.3471 11.3207 23.3139C11.3199 23.2973 11.3195 23.2835 11.3193 23.2728L11.319 23.2589L11.319 23.2537L11.319 23.2515V23.0413ZM12.569 23.2453L12.5694 23.2557C12.5699 23.2682 12.5713 23.2908 12.5744 23.3218C12.5806 23.384 12.5937 23.4791 12.621 23.5959C12.6758 23.8308 12.7854 24.1431 13.0029 24.4538C13.4143 25.0414 14.3008 25.7497 16.319 25.7497C18.3371 25.7497 19.2237 25.0414 19.6351 24.4538C19.8526 24.1431 19.9621 23.8308 20.017 23.5959C20.0442 23.4791 20.0573 23.384 20.0636 23.3218C20.0666 23.2908 20.068 23.2682 20.0686 23.2557L20.069 23.2452V23.0413C20.069 22.6962 19.7891 22.4163 19.444 22.4163H13.194C12.8488 22.4163 12.569 22.6962 12.569 23.0413V23.2453ZM25.5689 20.0576L20.6501 24.9763C20.3634 25.263 20.16 25.6223 20.0616 26.0158L19.6801 27.5414C19.5143 28.2048 20.1153 28.8058 20.7787 28.6399L22.3043 28.2585C22.6977 28.1602 23.0571 27.9568 23.3439 27.6699L28.2626 22.7513C29.0064 22.0074 29.0064 20.8014 28.2626 20.0576C27.5187 19.3137 26.3127 19.3137 25.5689 20.0576Z" fill="#212121"/>
</svg>
