<svg width="39" height="39" viewBox="0 0 39 39" fill="none" xmlns="http://www.w3.org/2000/svg">
<rect x="0.652344" y="0.5" width="38" height="38" rx="19" fill="#F5F5F5"/>
<path d="M11.1523 19.5C11.1523 14.8056 14.9579 11 19.6523 11C24.3467 11 28.1523 14.8056 28.1523 19.5C28.1523 24.1944 24.3467 28 19.6523 28C14.9579 28 11.1523 24.1944 11.1523 19.5ZM19.6523 9.5C14.1295 9.5 9.65234 13.9771 9.65234 19.5C9.65234 25.0228 14.1295 29.5 19.6523 29.5C25.1751 29.5 29.6523 25.0228 29.6523 19.5C29.6523 13.9771 25.1751 9.5 19.6523 9.5ZM19.6454 14.1483C19.5958 13.7823 19.2818 13.5 18.9023 13.5C18.4883 13.5 18.1523 13.836 18.1523 14.25V20.25L18.1592 20.3517C18.2088 20.7177 18.5228 21 18.9023 21H22.9023L23.004 20.9931C23.37 20.9435 23.6523 20.6295 23.6523 20.25C23.6523 19.836 23.3163 19.5 22.9023 19.5H19.6523V14.25L19.6454 14.1483Z" fill="#212121"/>
<path d="M26.3994 20.5391C27.344 19.7688 28.7377 19.8236 29.6182 20.7041L29.7832 20.8867C30.5024 21.7683 30.5021 23.0411 29.7832 23.9229L29.6182 24.1055L24.6982 29.0254C24.3911 29.3325 24.016 29.5613 23.6045 29.6943L23.4258 29.7461L21.9004 30.127C20.8706 30.3845 19.9379 29.4516 20.1953 28.4219L20.5762 26.8965L20.6279 26.7178C20.761 26.3063 20.9898 25.9311 21.2969 25.624L26.2168 20.7041L26.3994 20.5391Z" fill="#212121" stroke="#F5F5F5"/>
</svg>
